<?xml version="1.0" standalone="no"?>
<!DOCTYPE svg PUBLIC "-//W3C//DTD SVG 1.1//EN" "http://www.w3.org/Graphics/SVG/1.1/DTD/svg11.dtd">
<svg xmlns="http://www.w3.org/2000/svg">
<metadata>Copyright (C) 2025 by original authors @ fontello.com</metadata>
<defs>
<font id="comlogicons" horiz-adv-x="1000" >
<font-face font-family="comlogicons" font-weight="400" font-stretch="normal" units-per-em="1000" ascent="850" descent="-150" />
<missing-glyph horiz-adv-x="1000" />
<glyph glyph-name="filter-options" unicode="&#xe800;" d="M601 83h-201c-18 0-31 14-31 31s14 31 31 31h201c17 0 31-14 31-31s-14-31-31-31z m134 219h-469c-18 0-31 14-31 31s14 31 31 31h469c17 0 31-14 31-31s-14-31-31-31z m134 219h-738c-17 0-31 14-31 31s14 31 31 31h738c17 0 31-14 31-31s-14-31-31-31z" horiz-adv-x="1000" />

<glyph glyph-name="logo-github" unicode="&#xe80d;" d="M598-50c-3 0-6 0-8 0-8 2-15 5-20 9-6 5-11 11-15 18-3 6-5 14-5 21v140c0 22-6 43-17 60-7 9-8 21-3 31 4 10 14 17 25 19 75 8 120 18 120 115 0 25-8 49-24 67-8 9-10 21-7 32 5 14 6 29 4 44-10-4-27-11-49-26-8-5-17-7-26-5-48 14-99 14-148 0-8-2-18-1-25 4-23 16-39 23-50 26-2-14-1-29 4-43 4-11 2-23-6-32-17-18-25-42-25-66 0-97 46-107 121-116 10-1 20-8 24-18s4-22-2-31c-9-14-14-30-15-46-1-12-8-22-19-26-41-19-68-9-90 5 5-8 13-15 22-19 14-7 30-9 45-4 10 3 20 1 28-5 8-6 12-16 12-26v-79c0-7-1-15-5-21s-8-13-14-17c-5-5-12-8-19-9-8-2-15-1-22 1-93 27-173 88-225 170s-74 181-61 278c14 97 61 186 134 251 73 64 166 99 263 99s189-35 262-99c73-65 121-153 134-251 14-97-8-196-60-278-53-82-132-143-225-170-5-1-9-2-14-2z m15 48h0s0 0 0 0z m-8 192c5-17 8-35 7-53v-118c71 25 131 74 172 137 44 70 62 153 51 235-12 82-52 157-113 211-62 54-140 84-222 84s-160-30-221-84c-62-54-102-129-113-211-12-82 6-166 51-235 40-64 100-112 171-137v22c-18 1-35 5-51 13-28 15-50 39-60 69-8 25-21 47-38 65-10 10-12 26-5 38 7 12 21 18 35 15 16-4 31-9 43-15-30 25-51 67-51 136 0 35 10 68 30 96-7 31-4 64 9 93 3 9 10 15 19 18 9 3 42 9 104-30 51 12 103 12 153 0 62 39 96 33 105 29 8-3 15-9 18-17 13-30 16-62 9-93 20-28 30-62 30-97 0-126-71-159-133-171z m-253 12c4-2 7-5 11-8 15-11 21-15 29-15 1 3 2 7 3 11-14 2-29 6-43 12z" horiz-adv-x="1000" />

<glyph glyph-name="logo-youtube" unicode="&#xe80e;" d="M756 50h-512c-19 0-37 4-55 11-17 8-33 18-46 32-27 28-42 65-42 104v306c0 39 15 76 42 104 13 13 29 24 46 32 18 7 36 11 55 11h512c38 0 75-16 102-43 27-28 42-65 42-104v-306c0-39-15-76-42-104-27-27-64-43-102-43z m-512 536c-10 0-21-2-31-6-10-4-19-11-26-18-15-16-24-37-24-59v-306c0-22 8-43 24-59 7-8 16-14 26-18 10-4 21-6 31-6h512c22 0 43 9 58 24 15 16 24 37 24 59v306c0 22-9 43-24 59-15 15-36 24-58 24h-512z m174-413c-5 0-10 2-15 4-10 6-16 17-16 28v290c0 12 6 23 16 28 10 6 22 5 32-1l222-145c9-6 15-16 15-27s-6-21-15-27l-222-145c-5-3-11-5-17-5z m32 264v-174l132 87-132 87z" horiz-adv-x="1000" />

<glyph glyph-name="logo-linkedin" unicode="&#xe810;" d="M869-25h-176c-17 0-31 14-31 31v235c0 5-1 10-3 15-2 5-4 9-8 13s-8 6-13 8c-4 2-7 3-11 3-12-1-23-3-31-11-8-8-12-17-12-27v-235c0-18-14-32-31-32h-167c-18 0-31 14-31 32v450c0 17 14 31 31 31h167c16 0 29-11 31-25 34 16 71 25 109 26 128 0 208-97 208-252v-231c0-17-14-31-31-31z m-145 62h114v200c0 121-53 190-145 190-43-1-86-17-120-45-9-7-22-9-33-4-11 5-18 16-18 28v20h-105v-389h105v204c0 27 10 52 29 71 18 17 41 28 67 29 14 2 30-2 44-7 12-5 23-13 33-22 9-10 17-21 22-33 5-12 7-25 7-38v-204z m-432-62h-159c-17 0-31 14-31 31v451c0 17 14 31 31 31h159c18 0 31-14 31-31v-451c0-17-14-31-31-31z m-128 62h97v390h-97v-390z m49 465c-7 0-15 0-22 2-22 4-42 15-58 30s-26 36-31 58c-4 21-2 44 7 64 8 21 23 38 41 50 19 13 41 19 63 19 31 0 59-12 80-33 19-19 31-44 32-71 1-3 1-5 1-7 0-22-6-44-19-62s-30-33-51-41c-14-6-28-9-43-9z m0 161c-9 0-19-3-28-8-8-6-15-14-18-23-4-9-5-19-3-29 2-10 7-18 14-25 7-7 16-12 26-14 10-2 20-1 29 3 9 4 17 10 23 19 4 7 7 14 8 23 0 1 0 3 0 5 0 13-5 26-14 35-10 9-22 14-36 15z" horiz-adv-x="1000" />

<glyph glyph-name="logo-facebook" unicode="&#xe811;" d="M560-50h-159c-17 0-31 14-31 31v346h-65c-16 0-30 14-30 31v131c0 17 13 31 30 31h65v39c0 92 47 190 179 190h137c17 0 31-14 31-31v-131c0-17-14-31-31-31h-95s-2-4-2-5v-31h105c9 0 17-4 23-11s8-15 7-24l-13-131c-1-16-14-28-30-28h-92v-346c0-17-13-31-30-31z m-129 63h98v345c0 18 14 31 31 31h95l7 69h-102c-16 0-30 14-30 31v62c-1 6 0 15 3 23 3 9 7 17 13 23 6 7 13 12 21 16 8 3 19 5 25 5h65v69h-107c-97 0-118-70-118-128v-71c0-17-13-31-30-31h-65v-68h65c16 0 30-14 30-31v-346z" horiz-adv-x="1000" />

<glyph glyph-name="logo-instagram" unicode="&#xe812;" d="M685-50h-369c-119 0-215 97-215 216v369c0 119 96 215 215 215h369c119 0 215-96 215-215v-369c0-119-96-216-215-216z m-369 738c-85 0-153-69-153-153v-369c0-85 68-153 153-153h368c85 0 153 68 153 153v369c0 84-68 153-153 153h-368z m184-530c-106 0-192 86-192 192s86 193 192 193 193-87 193-193-87-192-193-192z m0 322c-71 0-130-58-130-130s59-130 130-130 130 59 130 130-58 130-130 130z m214 41h0c-24 0-43 19-43 43s19 43 43 43 43-19 43-43-19-43-42-43h0z" horiz-adv-x="1000" />

<glyph glyph-name="rocket" unicode="&#xe81f;" d="M482-50c-8 0-16 3-22 9l-100 100s0 0 0 0l-150 151s0 0-1 1l-99 99c-6 6-9 14-9 22s3 16 9 22l83 84c6 6 14 9 22 9h188l102 102-28 28c-12 12-12 32 0 44 12 13 32 12 44 0l28-28 45 45s0 0 0 0l24 24h0c66 66 157 97 248 85 14-2 29-13 31-27 12-97-19-187-84-253l-70-69 28-28c12-12 12-32 0-44s-32-12-44 0l-28 28-102-102v-188c0-8-4-16-9-22l-84-84c-6-6-14-9-22-9z m-56 132l56-56 53 52v112l-109-109z m-150 150l106-106 161 161s1 1 2 2l132 132s0 0 1 1c0 0 0 0 0 0l44 44-106 106-178-178-1-1-161-161z m-100 100l56-56 108 109h-112l-52-52z m484 284l106-106 3 3c47 47 71 109 69 175-67 2-129-23-175-69l-3-2z" horiz-adv-x="1000" />

<glyph glyph-name="logo-x" unicode="&#xe820;" d="M819 0h-158c-10 0-19 5-25 13l-182 241-227-244c-11-13-31-14-44-1-12 12-13 31-1 44l234 252-259 345c-7 10-9 22-3 33 5 11 16 18 28 18h159c10 0 19-5 25-13l181-241 227 244c12 12 32 13 44 1 13-12 14-31 2-44l-235-252 259-345c7-10 9-22 3-33-5-11-16-18-28-18z m-143 63h80l-236 314s-1 2-2 3l-194 257h-80l431-574z" horiz-adv-x="1000" />

<glyph glyph-name="radioactive" unicode="&#xe849;" d="M500-50c-65 0-130 15-188 44-6 3-11 8-16 14-4 5-7 11-9 18-2 6-3 13-2 20 1 7 3 14 6 20l113 198c3 6 9 10 15 12 7 2 14 0 19-3 38-23 87-23 124 0 6 3 13 4 19 3 7-2 12-6 16-12l112-198c4-6 6-13 7-20 1-7 0-14-2-20-2-7-6-13-10-18-4-6-10-10-16-14-58-29-123-44-187-44z m-65 268l-100-177c102-52 229-52 331 0l-101 177c-41-17-89-17-130 0z m65 88c-10 0-19 2-29 6-9 4-17 10-24 17-7 7-13 15-17 25-4 9-5 19-5 29s2 20 5 29c4 10 10 18 17 25 7 7 15 12 24 16 19 8 39 8 58 0 9-4 17-9 24-16 7-7 13-16 16-25 4-9 6-19 6-29s-2-20-6-29c-4-10-9-18-16-25-7-7-15-13-25-17-9-4-19-6-29-6z m0 102c-3 0-6 0-9-2-3-1-6-3-8-5-3-3-4-5-6-8-1-3-2-7-2-10s1-7 2-10c2-3 3-6 6-8 2-3 5-4 8-6 6-2 13-2 19 0 3 2 6 3 8 6 2 2 4 5 5 8 1 3 2 7 2 10s0 6-2 10c-1 3-3 6-5 8s-5 4-8 5c-3 1-6 2-10 2z m350-51h-176c-12 0-24 5-33 13-9 8-15 19-17 31-3 18-10 36-20 52-10 15-24 29-39 38-12 7-20 18-23 31-3 13-1 27 5 38l94 165c3 6 8 11 13 15 6 4 12 7 19 9 7 1 13 1 20 0 7-1 14-4 19-7 0 0 0 0 0 0 54-37 100-86 132-143 33-57 52-122 56-188 0-7 0-14-2-20-3-7-6-13-11-18-5-5-10-9-17-12-6-3-13-4-20-4z m-166 342l-93-164c22-14 41-32 55-54 15-22 24-47 28-73h176c-4 58-21 115-49 165s-69 94-116 126c0 0 0 0 0 0z m-357-342h-177c-7 0-13 2-20 4-6 3-12 7-16 12-5 5-9 11-11 18-2 6-3 13-3 20 5 66 24 131 56 188 33 57 78 106 132 143 6 4 12 6 19 7 7 1 14 1 21 0 6-2 12-5 18-9 6-4 10-9 14-15l93-165c7-11 9-25 5-38-3-13-11-24-22-31 0 0 0 0 0 0-16-9-30-23-40-38-10-16-17-34-19-52-2-12-8-23-17-31-9-8-21-13-33-13z m-11 342c-47-32-87-76-116-126-28-50-45-107-49-165h176c4 26 13 51 28 73 14 22 33 41 55 54 0 0 0 0 0 0l-93 165z m107-186h0 0z" horiz-adv-x="1000" />

<glyph glyph-name="flag" unicode="&#xe854;" d="M182-50c-17 0-32 14-32 31v738c0 18 14 31 32 31s32-14 32-31v-52l70 21c40 12 82 15 123 10 42-5 81-18 117-40 27-16 57-27 89-31 32-4 63-2 94 7l65 18c9 2 19 3 28 1 10-2 19-5 27-11 7-6 14-13 18-22 4-8 6-18 6-27v-312c0-14-4-27-12-37-8-11-20-19-33-22l-81-23c-40-11-80-14-121-8-40 5-79 19-113 40-28 17-59 27-91 31-33 4-65 2-97-8l-85-26s-2 0-3 0v-246c0-17-14-31-32-31z m188 376c12 0 25-1 37-2 41-5 80-19 116-40 27-17 57-27 89-32 32-4 64-2 94 7l81 22-1 311-62-20c-40-11-80-14-121-8-40 5-78 19-113 40-28 17-59 27-91 31-33 4-65 2-97-8l-85-26s-2 0-3 0v-309l70 21c28 8 57 12 86 12z" horiz-adv-x="1000" />

<glyph glyph-name="wrench" unicode="&#xe86e;" d="M218-50c-11 0-22 2-32 6-10 4-19 10-26 18l-36 36c-8 8-14 17-18 27-4 10-6 20-6 31s2 21 6 32c4 10 10 19 18 26l275 275c-17 44-21 91-12 138 10 54 36 103 76 140 40 38 90 62 145 69 54 7 109-3 157-29 9-5 15-13 16-23 2-10-2-20-9-27l-118-118s-3-3-4-6c-1-2-1-4-1-7s0-5 1-7c1-2 2-4 4-5l27-27c6-6 18-6 25 0l116 117c7 7 17 10 27 8 10-1 19-8 23-17 25-49 33-103 24-157-9-54-34-103-72-142h0c-38-38-86-63-140-72-45-8-92-4-134 12l-275-275c-7-7-16-13-26-17-10-4-21-7-32-7z m424 738c-9 0-17-1-26-2-41-5-79-23-109-52s-51-65-58-106-2-83 16-121c5-12 3-26-6-35l-290-290s-3-4-4-6c-1-2-2-5-2-7s1-5 2-8c1-2 2-4 4-6l36-36s4-3 6-4c5-2 10-2 15 0 3 1 5 3 7 4l289 290c10 9 24 12 36 6 37-18 77-23 118-17 40 7 76 26 105 55 30 29 49 66 55 107 4 26 3 52-3 77l-82-82c-30-30-83-30-113 0l-27 26c-7 8-13 16-17 26-4 10-6 21-6 31s2 21 6 31c4 10 10 19 17 26l85 85c-17 5-35 8-53 8z m160-358h0 0z" horiz-adv-x="1000" />

<glyph glyph-name="volume-down" unicode="&#xe885;" d="M589 25c-3 0-5 0-8 0-17 2-32 8-46 18l-242 158h-105c-24 0-46 9-63 26-17 17-26 40-26 64v117c0 24 10 47 26 64s39 27 63 27h105l244 159c11 8 27 15 43 16 17 2 33-1 48-9h0c14-7 27-19 35-33 9-15 13-31 13-48v-468c0-17-4-34-13-48-8-14-21-26-35-33-13-7-26-10-40-10z m-255 226l237-155c6-4 11-6 16-6 4 0 9 0 14 3 4 2 8 5 10 10 3 4 4 9 4 14v468c0 5-1 10-4 14-2 4-6 7-10 9-5 2-9 3-14 3-5 0-10-2-14-5l-239-156v-199z m-145 184c-7 0-14-3-19-8s-7-12-7-19v-117c0-7 3-14 7-19 5-5 12-8 19-8h83v171h-83z m629-234c-9 0-19 4-25 13-10 14-8 34 6 45 12 10 22 22 29 37 6 14 10 30 10 46s-3 32-10 46c-7 14-17 27-29 36-14 11-16 31-6 45 11 14 30 17 44 6 20-16 36-36 47-59 11-23 16-49 16-74s-6-51-16-74c-11-23-27-44-47-59-5-5-12-7-19-7z" horiz-adv-x="1000" />

<glyph glyph-name="microphone-off" unicode="&#xe886;" d="M512-50c-17 0-31 14-31 31v94c-58 6-111 29-155 66l-97-101c-12-12-31-13-44-1-12 12-13 32-1 44l588 615c12 12 31 13 44 1 12-12 13-32 1-44l-127-133s0-2 0-2v-153c0-98-80-178-178-178-39 0-77 13-107 36l-36-38c40-32 90-50 143-50 127 0 230 103 230 230v64c0 17 14 31 31 31s31-14 31-31v-64c0-151-115-276-261-291v-95c0-17-14-31-31-31z m-64 320c19-13 41-19 64-19 64 0 116 52 116 116v90l-179-188z m-178-32c-13 0-24 8-29 20-14 34-21 71-21 109v64c0 17 14 31 31 31s31-14 31-31v-64c0-30 5-59 16-86 7-16-1-34-17-41-4-1-8-2-12-2z m95 98c-17 0-31 14-31 31v205c0 98 80 178 178 178 66 0 126-36 157-94 8-15 2-34-13-43-15-8-34-2-42 13-20 38-59 62-102 62-64 0-116-52-116-116v-205c0-17-14-31-31-31z" horiz-adv-x="1000" />

<glyph glyph-name="headphones" unicode="&#xe887;" d="M549-50h-49c-21 0-41 8-57 23-15 15-23 36-23 58s8 41 23 57c15 15 36 23 57 23h49c22 0 42-8 57-23 8-8 14-16 17-26h49c18 0 35 7 48 20 11 11 18 25 19 41-12 1-23 7-32 16-11 10-17 24-17 39v246c0 15 6 29 17 40 8 8 19 14 31 15-7 53-31 101-68 139-45 45-106 70-169 70s-124-25-169-70c-38-38-62-86-68-139 11-2 22-7 31-15 10-11 16-25 16-40v-246c0-15-6-29-16-39-11-11-25-17-40-17h-24c-35 0-67 14-92 38-24 25-38 57-38 92v98c0 35 14 67 38 92 17 17 39 29 62 34 6 70 36 135 87 186 57 57 132 88 213 88s157-31 214-88c50-51 81-116 87-186 23-5 44-17 61-34 25-25 38-57 38-92v-98c0-35-13-67-38-92-16-16-37-28-60-34-1-33-15-65-38-89-24-24-58-38-92-38h-49c-4-10-10-18-17-26-15-15-35-23-57-23z m-49 99c-5 0-9-2-12-6-4-3-5-8-5-12s2-10 5-13c3-3 8-5 12-5h49c5 0 10 2 13 5 3 4 5 8 5 13s-2 9-5 12c-4 4-8 6-13 6h-49z m253 136h18c17 0 35 7 47 19s20 30 20 48v98c0 18-7 35-20 48-12 12-29 19-47 19h-18v-232z m-523 232c-18 0-35-7-48-19s-19-30-19-48v-98c0-18 7-35 19-48 13-12 30-19 48-19h18v232h-18z" horiz-adv-x="1000" />

<glyph glyph-name="play-block" unicode="&#xe88a;" d="M209-50h-2c-14 0-29 4-41 12-13 7-23 18-30 31s-11 28-11 42v630c0 15 4 30 11 42 7 13 17 24 30 31 12 8 27 12 41 12 15 0 29-3 42-10l581-315c14-7 25-18 33-31 8-14 12-29 12-44s-4-31-12-44c-8-13-20-24-33-31l-581-316c-12-6-26-10-40-10z m1 738s0 0-1 0c-4 0-7-1-11-3-3-2-6-5-8-8-2-4-3-8-3-12v-629c0-4 1-8 3-12 2-3 5-6 8-8 4-2 7-3 11-3 4 0 8 1 11 2l581 315c4 2 7 5 9 9 2 3 3 7 3 11s-1 8-3 12c-2 4-5 7-9 8l-581 315c-3 2-7 3-10 3z" horiz-adv-x="1000" />

<glyph glyph-name="stop-block" unicode="&#xe88b;" d="M802-50h-603c-40 0-99 26-99 99v603c0 39 26 98 99 98h603c40 0 99-26 99-98v-604c0-39-26-99-99-99z m0 738h-603c-31 0-36-23-36-36v-603c0-31 22-36 36-36h603c30 0 35 22 36 36v603c0 30-23 35-36 36z" horiz-adv-x="1000" />

<glyph glyph-name="pause-block" unicode="&#xe88c;" d="M738-50h-68c-40 0-99 26-99 99v603c0 39 26 98 99 98h68c40 0 100-26 100-98v-604c0-39-27-99-100-99z m0 738h-68c-31 0-36-23-36-36v-603c0-31 23-36 36-36h68c31 0 36 22 36 36v603c0 30-23 35-36 36z m-408-738h-68c-40 0-99 26-99 99v603c0 39 26 98 99 98h68c40 0 100-26 100-98v-604c0-39-27-99-100-99z m0 738h-68c-31 0-36-23-36-36v-603c0-31 23-36 36-36h68c31 0 36 22 36 36v603c0 30-23 35-36 36z" horiz-adv-x="1000" />

<glyph glyph-name="eject-block" unicode="&#xe88d;" d="M869-50h-738c-17 0-31 14-31 31v158c0 17 14 31 31 31h738c17 0 31-14 31-31v-158c0-17-14-31-31-31z m-706 63h675v95h-675v-95z m680 201h-685c-10 0-19 2-28 6-10 5-18 14-23 24-4 6-6 16-6 27 1 13 5 23 10 31l341 423s3 5 5 7c6 6 12 10 19 13 16 7 32 7 49 0 8-3 15-9 21-15l342-426c8-11 12-22 12-32 1-7-1-18-6-28-7-11-14-19-24-23-9-5-18-7-27-7z m-342 472l-330-410h659s-329 410-329 410z" horiz-adv-x="1000" />

<glyph glyph-name="rewind-block" unicode="&#xe88e;" d="M844 25s-2 0-3 0c-10 1-20 4-28 10l-208 127v-82c0-10-2-19-8-28-5-9-13-16-22-21-9-4-19-7-29-6-10 0-20 4-28 9l-394 270c-7 5-13 12-17 20-4 8-7 16-7 25s2 18 7 26c4 7 10 14 17 19l394 270c8 6 18 9 28 10 11 0 21-2 30-7 9-4 16-11 21-20 6-9 8-18 8-28v-82l209 128c8 5 17 8 27 9 10 0 21-2 30-7 9-4 16-11 21-20 6-9 8-18 8-28v-540c0-10-2-20-8-29-5-9-13-15-22-20-8-4-17-7-26-7z m-270 223c5 0 11-2 16-5l248-151v517l-248-152c-9-6-21-6-31-1-10 6-16 16-16 27v125l-375-258 375-257v124c0 11 6 22 16 27 4 3 10 4 15 4z m264 372h0z m-295 0h0z m287 20h0 0z" horiz-adv-x="1000" />

<glyph glyph-name="fast-forward-block" unicode="&#xe88f;" d="M156 25c-9 0-18 2-26 7-9 4-16 11-21 20-6 8-8 18-8 28v540c0 10 3 20 8 29 5 8 13 15 22 20 9 4 19 6 29 6 10-1 20-4 28-9l208-128v82c0 10 3 20 8 28 6 9 13 16 22 20 9 5 19 7 30 6 10 0 20-4 28-9l394-270c7-5 13-12 17-20 4-8 7-16 7-25s-2-18-7-26c-4-8-10-14-18-19l-393-270c-8-6-18-9-28-10-11 0-21 2-30 6-9 5-16 12-21 20-6 9-8 19-8 29v81l-209-127c-7-5-17-8-27-9-1 0-2 0-3 0z m6 584l1-517 247 152c10 6 22 6 32 0s16-15 16-27v-124l375 257-375 258v-125c0-11-6-21-16-27-10-5-22-5-32 1l-248 152z m285 6h0z" horiz-adv-x="1000" />

<glyph glyph-name="video" unicode="&#xe8b7;" d="M553 75h-316c-55 0-137 38-137 140v270c0 57 37 140 137 140h316c55 0 136-36 137-137l128 61c8 4 17 6 27 6 10 0 19-4 28-9 8-5 15-12 20-21 4-9 7-19 7-29v-291c0-10-2-20-7-29-5-8-12-16-20-21-8-5-18-8-28-9-9 0-19 2-28 6l-127 52c-5-55-43-129-137-129z m0 486h-316c-69 0-74-63-74-76v-270c0-71 62-76 75-76h316c69 0 74 64 74 76v270c0 72-62 76-74 76z m137-288l148-61v276s-148-71-148-71v-144z m148 223h0z" horiz-adv-x="1000" />

<glyph glyph-name="video-off" unicode="&#xe8b8;" d="M137-50c-8 0-16 3-22 9-12 12-12 32 0 44l116 116s3 4 5 6l611 616c12 12 32 12 44 0 12-12 12-32 0-44l-205-207v-17l126 59c8 4 17 6 28 6 9 0 19-4 27-9 9-5 15-12 20-21 5-8 7-18 7-28v-284c0-10-2-19-7-28-5-8-12-15-20-21-8-5-18-8-28-8-9-1-19 1-28 6l-126 51c-4-54-42-126-135-126h-282l-109-111c-6-6-14-9-22-9z m193 182h220c69 0 73 62 73 74v221l-293-295z m356 130l147-59v270s-147-70-147-70v-141z m146 218h0z m-688-361c-11 0-21 6-27 16-11 20-17 44-17 72v263c0 55 36 137 136 137h314c17 0 31-14 31-31s-14-31-31-31h-314c-69 0-74-62-74-75v-263c0-16 3-30 9-41 9-15 4-34-11-42-5-3-10-4-16-4z" horiz-adv-x="1000" />

<glyph glyph-name="flask" unicode="&#xe8e9;" d="M768-50h-536c-24 0-47 6-67 18-21 12-38 29-49 50-11 20-17 43-16 66 1 24 9 46 22 66l127 192s0 0 1 1l93 139v207h-19c-18 0-32 14-32 31s14 31 32 31h352c18 0 32-14 32-31s-14-31-32-31h-19v-207l221-332c13-20 21-42 22-65 1-24-5-47-16-67-12-21-28-38-49-50-20-12-44-18-67-18z m-475 345l-118-179c-7-10-11-22-11-34s2-24 8-35c6-10 15-19 26-26 10-6 23-9 35-9h536c12 0 24 3 35 9 11 7 20 15 26 26 6 11 9 23 8 35s-4 24-11 34l-118 179h-416z m41 61h333l-67 100c-3 5-5 11-5 17v216h-189v-216c0-6-2-12-5-17l-66-100z" horiz-adv-x="1000" />

<glyph glyph-name="tooth" unicode="&#xe8ec;" d="M725-50c-64 0-78 55-89 95-14 55-26 102-123 102h-26c-96 0-109-47-123-102-11-40-25-96-89-96-28 0-52 13-68 38-51 79-4 264 7 289 2 3 2 5 2 8 0 3-2 6-3 8-51 66-81 145-87 228 0 48 14 93 40 131 27 38 63 67 106 84 43 16 90 20 135 9 34-8 66-24 93-46 27 23 59 38 94 46 45 11 91 7 134-9 43-17 80-46 106-84 27-38 41-82 41-128-6-86-36-164-86-230 0 0 0 0 0 0-2-2-3-5-4-8 0-3 0-5 2-8 11-26 58-210 7-289-16-25-40-38-69-38z m-238 259h26c145 0 169-93 184-148 12-46 16-49 28-49 6 0 11 2 16 9 30 47 1 200-12 229-6 13-8 28-6 42 2 14 8 27 16 38 43 56 69 123 74 194 0 31-11 63-30 91-19 27-46 48-77 61-32 12-65 14-98 7-33-8-62-25-85-50-12-13-34-13-46 0-23 25-52 42-85 50-33 7-67 5-98-7-32-12-58-33-77-61-19-28-30-60-30-94 5-68 31-135 74-191 8-11 14-24 16-38 2-14 0-29-7-42-13-29-41-182-11-229 5-7 9-9 16-9 11 0 16 2 28 49 14 55 39 148 183 148z m277 103h0 0z" horiz-adv-x="1000" />

<glyph glyph-name="file-type-csv" unicode="&#xe8fc;" d="M820-50h0c-11 0-20 5-26 14-36 54-55 116-55 180v83c0 17 14 31 31 31s31-14 31-31v-83c0-33 6-65 18-95 12 30 18 62 18 95v83c0 17 14 31 31 31s31-14 31-31v-83c0-64-19-127-54-180-6-9-16-14-26-14z m-197 0h-49c-17 0-31 14-31 31s14 31 31 31h49c5 0 10 2 13 6 3 3 5 8 5 12 0 20-10 29-36 49-26 19-62 46-62 99 0 21 9 41 24 57 15 15 35 23 57 23h49c17 0 31-14 31-31s-14-31-31-31h-49c-5 0-10-2-13-5s-5-8-5-13c0-19 11-29 37-49 26-19 61-46 61-98 0-22-8-42-23-58-15-15-36-23-57-23z m-147 0c-35 0-67 13-92 38-24 24-38 58-38 92v49c0 34 14 67 38 91 24 24 58 38 92 38 17 0 31-14 31-31s-14-31-31-31-35-7-48-19-19-30-19-48v-49c0-17 7-35 19-47 13-13 30-20 48-20s31-14 31-31-14-31-31-31z m-197 0h-98c-22 0-42 8-57 23-15 15-24 36-24 58v639c0 21 9 41 24 57 15 15 35 23 57 23h348c22 0 42-8 57-23l193-193c7-7 13-16 17-26 4-10 6-20 6-31v-151c0-18-14-31-31-31s-31 14-31 31v116h-165c-22 0-42 8-57 23-15 15-24 36-24 57v166h-313c-5 0-10-2-13-6-3-3-5-8-5-12v-639c0-5 2-10 5-13 4-3 8-5 13-5h98c18 0 31-15 31-32s-14-31-31-31z m277 718v-146c0-5 2-9 5-12 4-4 8-5 13-5h146l-164 163z" horiz-adv-x="1000" />

<glyph glyph-name="wifi-off" unicode="&#xe919;" d="M132-50c-8 0-16 3-22 9-12 12-12 32 0 44l737 738c12 12 32 12 44 0 12-12 12-32 0-44l-96-96c34-20 66-44 95-72 13-12 14-31 2-44-12-12-32-13-44-1-30 28-63 52-99 72l-63-63c42-21 81-49 115-82 12-12 12-32 0-44-12-12-32-12-44 0-34 34-74 61-118 79l-67-67c47-13 90-37 124-72 12-12 13-32 0-44s-32-12-44 0c-36 36-83 58-133 62l-365-365c-6-6-14-9-22-9z m368 30c-34 0-67 14-91 39-24 24-38 57-38 91s13 67 38 92c48 48 134 48 183 0 24-25 38-57 38-92s-14-67-38-91c-25-25-57-39-92-39z m0 197c-17 0-35-7-47-19-13-13-20-30-20-48s7-35 20-47c25-25 70-25 95 0 12 12 19 29 19 47s-7 35-19 48c-13 12-30 19-48 19z m-278 180c-8 0-16 3-22 9-12 12-12 32 0 44 85 85 200 129 319 124 17 0 31-15 30-32 0-17-15-31-32-30-102 4-200-34-272-106-6-6-14-9-22-9z m-90 118c-9 0-17 3-23 10-12 12-11 32 1 44 107 99 245 153 390 153 50 0 100-6 148-19 16-5 26-22 22-39-5-16-22-26-38-22-43 12-88 18-132 18-129 0-253-49-347-137-6-6-14-9-22-9z" horiz-adv-x="1000" />

<glyph glyph-name="database-settings" unicode="&#xe91a;" d="M672-50c-16 0-32 5-44 15-13 9-23 23-27 39l-15 47-50-10c-16-3-32-2-47 5-14 6-27 17-35 31-8 14-11 30-9 46 2 16 9 31 19 43l34 36-34 39c-11 11-18 26-19 42-2 16 1 32 9 46 8 14 21 25 35 32 15 6 31 8 47 4l48-11 16 49c5 15 15 29 27 38 13 10 29 15 45 15h0c16 0 32-6 44-15 13-10 23-23 27-39l15-47 49 10c16 3 32 2 47-5 15-6 27-17 35-31 8-14 12-30 10-46-2-16-9-31-20-43l-34-36 34-39c11-11 18-26 20-42 2-16-2-32-10-46-8-14-20-25-35-32-15-6-31-8-46-4l-49 11-16-48c-4-16-14-29-27-39-13-10-28-15-44-15z m-87 165c11 0 22-3 32-9 14-8 24-21 29-37l14-47c1-3 3-5 5-7 4-3 10-3 14 0 2 2 4 4 5 7l14 47c5 16 15 29 29 37 14 8 31 10 47 7l48-11s5 0 8 1 4 3 6 5c1 2 2 5 1 8 0 2-1 5-3 7l-34 36c-11 12-17 28-17 44s6 31 17 43l34 37s3 4 4 7 0 5-2 7c-1 3-3 4-6 6-2 1-5 1-8 0l-48-11c-16-4-32-1-46 7-14 8-25 21-29 37l-15 47s0 0 0 0c-1 3-2 5-4 7-2 1-5 2-8 2 0 1-5-1-7-2-2-2-4-4-5-7l-14-47c-5-16-15-29-29-37-14-8-31-10-47-7l-48 11s-5 0-7-1c-3-1-5-3-6-5-2-3-2-5-2-8 0-3 2-5 4-7l34-37c11-12 17-27 17-43s-6-32-17-44l-34-36s-3-5-4-7c0-3 0-6 2-8 1-2 3-4 6-5 2-1 5-2 8-1l48 11c5 1 9 1 14 1z m-184-110s-2 0-3 0c-181 20-298 88-298 173v393c0 116 206 179 400 179s400-62 400-179v-147c0-18-14-32-31-32s-31 14-31 32v48c-13-10-29-19-49-27-16-7-34 0-41 15-7 16 0 34 15 42 47 21 75 47 75 69 0 49-129 117-338 117s-337-68-337-117 128-116 337-116c18 0 31-14 31-32s-14-31-31-31c-128 0-261 27-337 79v-97c0-41 90-94 241-111 17-2 29-18 27-35s-17-30-34-27c-102 11-183 38-234 74v-98c0-41 90-94 242-111 17-2 29-17 27-34-2-16-15-28-31-28z m271 117c-21 0-41 9-57 24-15 15-23 35-23 57s8 41 23 57c31 30 84 30 114 0 15-16 23-36 23-57s-8-42-23-57c-15-15-36-24-57-24z m0 99c-4 0-9-2-12-6s-5-8-5-12 2-10 5-13c7-7 19-7 26 0 3 4 5 8 5 13s-2 9-5 12c-4 4-8 5-13 5z" horiz-adv-x="1000" />

<glyph glyph-name="empty" unicode="&#xe93c;" d="M601 25c16 4 34-4 39-20 6-17-2-34-18-40l-3-1c-16-5-32-10-48-13-18-4-34 7-38 24-3 17 7 35 25 38 13 3 27 7 40 11 1 0 2 1 3 1h0z m-165-72c-4-1-9-2-14 0-17 3-34 8-51 13-17 6-26 24-20 41 5 16 23 25 40 20 14-5 28-9 43-12 17-3 28-21 25-37-3-12-12-22-24-25h1z m320 87c-11-3-24 0-32 9-12 13-10 33 2 45 11 10 22 20 32 32 11 13 31 14 45 3 13-12 15-32 3-45-12-13-24-26-38-37-4-4-8-6-13-7h1z m-494-2c-10-2-21 0-29 7-13 11-26 24-38 37-11 13-10 33 3 45 13 11 33 10 45-3 10-11 20-22 32-31 13-12 15-32 3-45-5-5-10-8-17-10h1z m601 163c-6-2-12-2-18 0-17 6-26 24-20 40 4 14 8 29 11 43 4 18 21 29 38 25 17-3 28-20 25-37-4-18-8-35-14-52-3-10-12-18-22-21v1z m-710-2c-16-4-32 4-38 20 0 0-1 2-1 3-3 8-6 19-8 29-2 6-3 12-5 19-3 18 6 35 25 38 18 3 34-8 38-25 1-6 2-11 3-16 2-9 5-17 8-26 5-17-3-35-20-41-1 0-1 0-2-1h0z m722 194h-1c-18-3-34 8-38 25-1 6-2 12-4 19-2 8-4 16-7 25-6 17 2 36 19 42 16 6 34-2 40-18l1-4c3-10 6-20 9-30 2-7 3-14 5-21 3-17-7-33-24-37h0z m-735-2c-5-1-9-2-14 0-17 3-28 20-25 37 4 17 8 34 13 51 6 17 24 26 40 21 17-6 26-24 21-40-5-14-9-29-11-43-3-12-12-22-24-25h0z m647 179c-11-3-23 0-31 9-10 11-21 22-32 32-13 11-15 31-4 44 12 13 32 15 45 4 13-12 26-24 38-37 11-13 10-33-3-45-4-3-8-6-13-7h1z m-563-5c-9-2-20 0-29 7-13 11-15 31-3 44 12 13 24 26 37 38 13 11 33 10 45-3 12-13 11-33-2-44-11-10-22-21-32-32-4-5-10-9-16-10h0z m401 111c-6-2-12-2-18 0-14 5-29 9-43 11-18 3-29 20-26 37 3 18 21 29 37 26 18-3 35-8 52-13 17-6 26-24 20-40-3-11-12-19-22-21z m-238-1c-16-4-34 4-39 20-6 17 2 34 18 40l3 1c16 5 32 10 48 13 18 4 34-7 38-24 3-17-7-34-25-38-13-3-27-6-40-11-1 0-2 0-3 0h0z" horiz-adv-x="1000" />

<glyph glyph-name="zoom-in" unicode="&#xe943;" d="M869-50c-8 0-16 3-22 9l-209 210c-25-21-53-38-83-50-60-25-126-32-190-19-64 13-122 44-168 90-46 46-77 104-90 168-12 64-6 130 19 190 25 60 67 111 121 147 54 36 117 56 182 56 87 0 171-35 232-96 62-62 96-145 96-232 0-65-19-129-55-183-6-9-13-18-20-26l210-210c12-12 12-32 0-44-6-6-14-9-22-9z m-440 738c-53 0-104-16-148-45s-77-71-98-120c-20-49-25-102-15-153 11-52 36-99 73-136 38-38 85-63 136-73 52-11 105-5 154 15 32 13 60 32 85 56 0 0 1 1 1 2 0 0 1 1 2 1 11 12 22 25 31 39 30 44 45 95 45 148 0 71-27 137-78 188-49 49-118 78-188 78z m-2-443c-18 0-31 14-31 32v116h-116c-18 0-31 14-31 31s14 32 31 32h116v116c0 18 14 32 31 32s31-14 31-32v-116h116c17 0 31-14 31-32s-14-31-31-31h-116v-116c0-17-14-32-31-32z" horiz-adv-x="1000" />

<glyph glyph-name="zoom-out" unicode="&#xe944;" d="M869-50c-8 0-16 3-22 9l-209 210c-25-21-53-38-84-50-60-25-126-32-189-19-64 13-122 44-168 90-46 46-77 104-90 168-13 64-6 130 18 190 25 60 67 111 121 147 54 36 118 56 183 56 87 0 170-34 232-96 62-62 96-145 96-232 0-65-19-128-56-183-6-9-13-18-20-26l210-210c12-12 12-32 0-44-6-6-14-9-22-9z m-440 738c-53 0-104-16-148-45-44-30-77-71-98-120-20-48-25-102-15-153 11-52 36-99 73-136 38-38 85-63 136-73 52-11 105-5 154 15 32 13 61 32 85 56 0 0 0 1 1 1 0 0 1 1 1 1 12 12 22 25 32 39 29 44 45 95 45 148 0 71-28 137-78 188-50 50-117 78-188 78z m145-295h-295c-17 0-31 14-31 31s14 31 31 31h295c17 0 31-14 31-31s-14-31-31-31z" horiz-adv-x="1000" />

<glyph glyph-name="clipboard-edit" unicode="&#xe985;" d="M693-50h-511c-22 0-42 8-58 23-15 16-24 36-24 58v573c0 22 9 42 24 57s36 24 58 24h84v10c0 27 19 55 56 55h231c28 0 56-19 56-55v-11h85c22 0 42-9 57-24 6-6 11-13 16-21 8-16 1-34-14-42-16-8-35-2-42 14-1 2-3 4-4 5-3 4-8 6-13 6h-84v-9c0-27-20-55-56-55h-232c-27 0-56 19-56 55v10h-84c-5 0-9-2-13-6s-5-8-5-13v-573c0-5 1-9 5-13 4-3 8-5 13-5h512c5 0 9 2 13 5 4 5 5 10 5 13v120c0 17 14 31 32 31s31-14 31-31v-120c0-21-8-42-24-57-15-15-36-24-57-24z m-364 738v-69s218 0 218 0v69s-218 0-218 0z m82-630c-9 0-17 4-23 9-7 7-10 17-9 27l18 120c1 7 4 13 9 18l315 312c41 38 109 38 148-1 20-20 31-46 31-73s-10-53-28-73l-316-312c-5-5-11-8-18-9l-123-18s-3 0-4 0z m123 49h0 0z m-76 88l-10-69 71 10 307 304c7 7 11 18 11 30 0 10-4 21-12 29-17 16-44 15-60 0l-307-304z m-83 90h-88c-18 0-32 14-32 31s14 31 32 31h88c17 0 31-14 31-31s-14-31-31-31z m126 130h-214c-18 0-32 14-32 31s14 31 32 31h214c18 0 32-14 32-31s-14-31-32-31z" horiz-adv-x="1000" />

<glyph glyph-name="alarm-bell-off" unicode="&#xe999;" d="M156-50c-8 0-16 3-22 9-12 12-12 32 0 45l147 146s1 1 1 2l402 402s1 1 1 1l137 137c12 12 32 12 44 0 12-12 12-32 0-44l-121-121c21-39 31-83 31-128 0-202 39-247 40-247 10-9 13-22 9-34-5-13-17-20-31-20h-146c-11-27-28-52-51-70-56-45-139-45-195 0-22 18-40 42-51 70h-35l-138-139c-6-6-14-9-22-9z m266 148c6-8 12-15 20-21 34-27 83-27 117 0 7 6 13 13 19 21h-156z m-43 62h364c-15 43-28 116-28 239 0 28-6 56-16 81l-319-320z m-124 69c-17 0-31 14-31 31v140c0 74 29 143 81 196 45 45 102 72 164 79v44c0 18 14 32 31 32s31-14 31-32v-44c28-3 56-10 82-22 15-7 22-26 15-42-7-16-25-23-41-15-28 12-57 18-86 18h-1c-58 0-111-22-152-63s-63-94-63-151v-140c0-17-14-31-31-31z" horiz-adv-x="1000" />

<glyph glyph-name="alarm-bell-off-filled" unicode="&#xe99a;" d="M393 62h214l-11-40c-6-20-19-39-36-52-17-13-38-20-60-20s-43 7-60 20c-17 13-30 32-35 52l-12 40z m-155 135c4-2 8-3 12-3 8 0 16 3 22 9l375 375c7 8 19 20 16 34-3 11-10 16-18 23-5 3-20 11-20 11-33 15-73 26-94 26v47c0 17-14 31-31 31s-31-14-31-31v-46c-62-7-120-33-165-78-52-52-81-122-81-195l-4-174c0-13 7-24 19-29h-1z m628 496c-12 12-32 12-44 0l-137-137-403-404-148-148c-12-12-12-32 0-44 6-6 14-9 22-9s16 3 22 9l139 139h478c13 0 26 7 30 20 5 12 2 25-9 34 0 0-39 45-39 247 0 45-11 88-32 128l121 121c12 12 12 32 0 44h0z" horiz-adv-x="1000" />

<glyph glyph-name="brand-cdi-collab" unicode="&#xe99b;" d="M700 484l1 266-332-68-2-732h534v534h-200z m120-167l-226-228-4-3c-4-2-9-4-13-4-7-1-13 1-21 6l-95 91-3 4c-6 9-6 20 1 30l24 29 3 3c4 2 7 4 12 4 7 0 13-2 19-7l66-62 185 188 4 3c3 3 7 4 11 4 6 1 13-2 18-6l19-21c9-9 9-22 0-32z m-720 100h67v-333h-67v333z m800 134h-133l1 199 132-199z m-666 0h66v-534h-66v534z" horiz-adv-x="1000" />

<glyph glyph-name="provider-add" unicode="&#xe99d;" d="M694-50c-55 0-108 22-147 61-39 40-60 93-60 148s22 109 60 148c39 39 93 61 147 61s108-22 146-61c39-39 61-93 61-148s-22-109-61-148c-39-39-92-61-146-61z m0 356c-38 0-76-15-103-43-27-27-42-65-42-103s15-76 42-104c53-54 151-55 205 0 27 27 42 65 42 103s-15 77-42 104c-27 27-64 43-103 43z m-237-319h-326c-17 0-31 14-31 31 0 78 0 223 93 306 76 74 191 105 300 76 16-4 26-21 22-38s-21-26-38-22c-33 9-66 11-98 7v-48c18-6 34-15 48-28 23-21 36-50 36-81v-57c0-14-5-27-15-37-12-10-24-15-38-15h-22c-17 0-31 14-31 31s14 31 31 31h14v46c0 14-6 26-16 36-23 21-64 20-83 0-11-10-17-23-17-36v-46h13c17 0 31-14 31-31s-14-31-31-31h-22c-14 0-28 6-37 15-9 8-16 23-16 37v57c0 31 13 60 36 81 15 15 35 25 57 30v31c-30-12-58-30-82-53-62-56-71-158-72-228h295c17 0 31-14 31-31s-14-32-31-32z m237 52c-17 0-31 14-31 31v58h-57c-17 0-31 14-31 31s14 31 31 31h57v58c0 17 14 31 31 31s31-14 31-31v-58h57c17 0 31-14 31-31s-14-31-31-31h-57v-58c0-17-14-31-31-31z m-284 386c-42 0-84 18-114 48-30 31-47 72-47 116s17 85 47 115c59 61 168 62 229 0 30-30 47-72 47-115s-17-85-47-116c-30-30-71-48-114-48z m0 265c-26 0-52-11-70-29-19-19-30-45-30-72s11-52 29-71c38-38 105-37 141 0 19 19 30 45 30 72s-11 53-29 71c-19 19-45 30-71 30z" horiz-adv-x="1000" />

<glyph glyph-name="lightbulb-shine" unicode="&#xe99e;" d="M512-50h-13c-17 0-34 5-48 14-15 9-27 22-35 37l-10 21c-3 5-6 13-6 21s2 17 7 24c4 7 10 13 17 17 8 4 15 6 23 5h116c8 0 16-1 23-5 8-4 14-10 18-17 5-8 7-16 7-24s-2-16-6-23l-10-19c-8-16-20-29-35-38-14-9-31-13-48-13z m-39 77c2-4 6-7 10-9 5-3 11-5 17-5h12c5 0 12 1 17 5 4 2 8 5 10 9h-66z m-26 0h0 0z m104 23s0 0 0 0h0z m-91 2l1-2s-1 1-1 2z m117 51h-143c-16 0-31 7-42 18s-17 27-17 43v15c-35 27-60 64-75 107-15 45-15 94-1 140 14 46 41 85 78 114 38 28 82 44 129 44h0c46 0 92-16 129-44 37-29 64-68 78-114 14-46 14-95-1-140-14-43-40-80-75-107v-15c0-16-6-31-17-43-11-11-26-18-42-18z m-71 418c-34 0-65-11-92-31-27-21-47-49-57-83-10-33-9-68 1-101 11-33 32-62 59-81 6-4 11-10 14-17s5-14 5-21v-23l141 2-2 21c0 8 2 16 6 22 3 7 8 12 14 17 27 19 47 47 58 80 11 33 11 69 1 102-10 34-30 62-57 83-27 20-58 31-92 31z m-125-347s0 0 0 0c0 0 0 0 0 0z m250 0h-1s0 0 1 0z m-257 13h0s0 0 0 0z m471 150h-69c-17 0-31 14-31 31s14 31 31 31h69c17 0 30-14 30-31s-14-31-30-31z m-620 0h-69c-17 0-30 14-30 31s13 31 30 31h69c17 0 31-14 31-31s-14-31-31-31z m470 198c-8 0-16 3-22 9-12 12-12 32 0 44l57 58c12 12 31 12 43 0 12-12 12-32 0-44l-56-58c-6-6-14-9-22-9z m-389 0c-8 0-16 3-22 9l-56 58c-12 12-12 32 0 44s31 12 43 0l57-58c12-12 12-32 0-44-6-6-14-9-22-9z m194 82c-17 0-30 14-30 31v71c0 17 13 31 30 31s31-14 31-31v-71c0-17-14-31-31-31z" horiz-adv-x="1000" />

<glyph glyph-name="provider" unicode="&#xe99f;" d="M781-50h-581c-19 0-34 15-34 34 0 75 0 230 96 316 45 44 103 73 165 85 2 0 3 1 5 1 101 19 209-13 287-86 96-90 96-242 96-316 0-19-15-34-34-34z m-554 62h527c-1 72-9 180-76 243-59 54-136 81-212 74v-55c20-6 39-16 55-30 24-23 39-55 39-88v-63c0-14-6-27-17-38-10-10-24-16-39-16h-24c-17 0-31 14-31 31s14 31 31 31h18v55c0 16-7 31-19 42-25 24-72 24-98 0-12-11-19-26-19-42v-56l19 1c17 0 30-14 30-31s-13-31-30-31h-25c-14 0-28 6-39 16-10 9-16 24-16 38v63c0 33 14 65 39 88 18 16 40 28 64 32v40c-37-13-72-34-100-61-68-61-76-172-77-243z m264 398c-44 0-87 18-119 50-32 31-50 75-50 120s18 88 50 120c31 32 74 50 119 50s88-18 120-50c31-31 49-75 49-120s-18-89-49-120c-31-32-75-50-120-50z m0 278c-28 0-56-11-75-32-21-20-32-48-32-76s11-57 31-77c41-41 113-40 152 0 21 21 32 49 32 77s-11 56-31 76c-21 21-48 32-76 32z" horiz-adv-x="1000" />

<glyph glyph-name="swap" unicode="&#xe9a0;" d="M687-50c-8 0-16 3-22 9-12 13-12 33 1 45l125 122h-659c-17 0-31 14-31 31s14 32 31 32h659l-125 121c-13 12-13 32-1 45 12 12 32 13 44 1l178-173c8-5 13-15 13-25s-5-20-13-26l-178-173c-6-6-14-9-22-9z m-374 386c-8 0-15 3-21 9l-178 173c-8 5-13 15-13 25s5 20 13 26l178 172c12 12 32 12 44-1 12-12 11-32-1-44l-126-122h660c17 0 31-14 31-31s-14-32-31-32h-660l126-121c12-12 13-32 1-45-6-6-15-9-23-9z" horiz-adv-x="1000" />

<glyph glyph-name="provider-subtract" unicode="&#xe9a1;" d="M694-50c-55 0-108 22-147 61-39 40-60 93-60 148s22 109 60 148c39 39 93 61 147 61s108-22 146-61c39-39 61-93 61-148s-22-109-61-148c-39-39-92-61-146-61z m0 356c-38 0-76-15-103-43-27-27-42-65-42-103s15-76 42-104c53-54 151-55 205 0 27 27 42 65 42 103s-15 77-42 104c-27 27-64 43-103 43z m-237-319h-326c-17 0-31 14-31 31 0 78 0 223 93 306 76 74 191 105 300 76 16-4 26-21 22-38s-21-26-38-22c-33 9-66 11-98 7v-48c18-6 34-15 48-28 23-21 36-50 36-81v-57c0-14-5-27-15-37-12-10-24-15-38-15h-22c-17 0-31 14-31 31s14 31 31 31h14v46c0 14-6 26-16 36-23 21-64 20-83 0-11-10-17-23-17-36v-46h13c17 0 31-14 31-31s-14-31-31-31h-22c-14 0-28 6-37 15-9 8-16 23-16 37v57c0 31 13 60 36 81 15 15 35 25 57 30v31c-30-12-58-30-82-53-62-56-71-158-72-228h295c17 0 31-14 31-31s-14-32-31-32z m325 141h-177c-17 0-31 14-31 31s14 31 31 31h177c17 0 31-14 31-31s-14-31-31-31z m-372 297c-42 0-84 18-114 48-30 31-47 72-47 116s17 85 47 115c59 61 168 62 229 0 30-30 47-72 47-115s-17-85-47-116c-30-30-71-48-114-48z m0 265c-26 0-52-11-70-29-19-19-30-45-30-72s11-52 29-71c38-38 105-37 141 0 19 19 30 45 30 72s-11 53-29 71c-19 19-45 30-71 30z" horiz-adv-x="1000" />

<glyph glyph-name="file-type-rtf" unicode="&#xe9a2;" d="M476-50c-11 0-21 5-27 15l-41 67v-51c0-17-14-31-31-31s-31 14-31 31v246c0 17 14 31 31 31h37c25 0 49-10 66-27 17-17 27-41 27-65s-10-48-27-66c-8-8-18-14-28-19l51-84c9-15 4-34-11-43-5-3-10-5-16-5z m-67 186h5c8 0 16 3 22 9 5 5 9 13 9 21s-3 16-9 22c-6 5-14 9-22 9h-5v-61z m362-186c-17 0-31 14-31 31v197c0 21 8 41 23 57 15 15 36 23 57 23h49c17 0 31-14 31-31s-14-31-31-31h-49c-5 0-9-2-12-5-4-4-6-8-6-13v-67h43c17 0 31-14 31-31s-14-31-31-31h-43v-67c0-17-14-31-31-31z m-148 0c-17 0-31 14-31 31v215h-18c-17 0-31 14-31 31s14 31 31 31h99c17 0 31-14 31-31s-14-31-31-31h-18v-215c0-17-14-31-31-31z m-344 0h-98c-22 0-42 8-57 23-15 15-24 36-24 58v639c0 21 9 41 24 57 15 15 35 23 57 23h348c11 0 21-2 31-6s19-10 26-17l193-193c15-15 23-35 23-57v-151c0-18-14-32-31-32s-31 14-31 32v116h-165c-22 0-42 9-57 24-15 15-24 35-24 57v165h-313c-5 0-10-2-13-5s-5-8-5-12v-639c0-5 2-10 5-13 4-3 8-5 13-5h98c18 0 31-15 31-32s-14-31-31-31z m277 718v-146c0-5 2-9 5-12 4-4 8-5 13-5h146l-164 163z" horiz-adv-x="1000" />

<glyph glyph-name="file-type-txt" unicode="&#xe9a3;" d="M672-50c-12 0-24 7-29 19l-20 51-20-51c-6-16-24-24-40-17-16 6-24 24-18 40l45 112-45 112c-6 16 2 34 18 40 16 7 34-1 40-17l20-51 20 51c7 16 25 23 41 17 16-6 24-24 17-40l-44-112 44-112c7-16-1-34-17-40-4-2-8-2-12-2z m148 0c-17 0-31 14-31 31v215h-18c-17 0-31 14-31 31s14 31 31 31h98c17 0 31-14 31-31s-14-31-31-31h-18v-215c0-17-14-31-31-31z m-393 0c-18 0-31 14-31 31v215h-18c-18 0-31 14-31 31s14 31 31 31h98c18 0 31-14 31-31s-14-31-31-31h-18v-215c0-17-14-31-31-31z m-148 0h-98c-22 0-42 8-57 23-15 15-24 36-24 58v639c0 21 9 41 24 57 15 15 35 23 57 23h348c21 0 42-8 57-23l193-193c15-15 23-35 23-57v-151c0-18-14-32-31-32s-31 14-31 32v116h-165c-22 0-42 8-57 23s-24 36-24 57v166h-313c-5 0-10-2-13-6-3-3-5-8-5-12v-639c0-5 2-10 5-13 4-3 8-5 13-5h98c18 0 31-15 31-32s-14-31-31-31z m277 718v-146c0-5 2-9 6-12 3-4 8-5 12-5h146l-163 163z" horiz-adv-x="1000" />

<glyph glyph-name="battery-medium" unicode="&#xe9a4;" d="M672 100h-442c-35 0-67 15-92 40-24 26-38 61-38 97v226c0 36 14 71 38 97 24 25 58 40 92 40h442c34 0 68-15 92-40 21-22 34-51 37-82h19c21 0 41-9 57-25 15-16 23-37 23-60v-87c0-22-8-44-23-60-16-16-36-25-57-25h-19c-4-30-16-59-37-81-24-26-58-40-92-40z m-442 434c-18 0-35-7-48-21s-19-31-19-50v-225c0-19 7-37 19-50 13-13 30-21 48-21h442c18 0 35 7 48 21s19 31 19 50v18c0 18 14 33 31 33h49c5 0 10 2 13 5s5 9 5 14v87c0 5-2 10-5 13s-8 6-13 6h-49c-17 0-31 15-31 33v17c0 19-7 37-19 50-13 13-30 21-48 21h-442z m205-330c-18 0-31 15-31 33v226c0 18 14 33 31 33s31-15 31-33v-226c0-18-14-33-31-33z m-148 0c-17 0-31 15-31 33v226c0 18 14 33 31 33s31-15 31-33v-226c0-18-14-33-31-33z" horiz-adv-x="1000" />

<glyph glyph-name="battery-full" unicode="&#xe9a5;" d="M672 100h-442c-34 0-68 15-92 40-24 26-38 61-38 97v226c0 36 14 71 38 97s58 40 92 40h442c34 0 68-15 92-40 21-22 34-51 37-82h19c21 0 41-9 57-25 15-16 23-37 23-60v-87c0-22-8-44-23-60-15-16-36-25-57-25h-19c-4-30-16-59-37-81-24-26-58-40-92-40z m-442 434c-18 0-35-7-48-21s-19-31-19-50v-225c0-19 7-37 19-50 13-13 30-21 48-21h442c18 0 35 7 48 21 12 13 19 31 19 50v17c0 19 14 33 31 33h49c5 0 10 2 13 6 3 3 5 8 5 13v87c0 5-2 10-5 14-4 3-8 5-13 5h-49c-17 0-31 15-31 33v18c0 19-7 37-19 50-13 13-30 21-48 21h-442z m352-330c-17 0-31 15-31 33v226c0 18 14 33 31 33s31-15 31-33v-226c0-18-14-33-31-33z m-147 0c-18 0-31 15-31 33v226c0 18 14 33 31 33s31-15 31-33v-226c0-18-14-33-31-33z m-148 0c-17 0-31 15-31 33v226c0 18 14 33 31 33s31-15 31-33v-226c0-18-14-33-31-33z" horiz-adv-x="1000" />

<glyph glyph-name="battery-low" unicode="&#xe9a6;" d="M672 100h-442c-35 0-67 15-92 40-24 26-38 61-38 97v226c0 36 14 71 38 97 24 25 58 40 92 40h442c34 0 68-15 92-40 21-22 34-51 37-82h19c21 0 41-9 57-25 15-16 23-37 23-60v-87c0-22-8-44-23-60-16-16-36-25-57-25h-19c-4-30-16-59-37-81-24-26-58-40-92-40z m-442 434c-18 0-35-7-48-21s-19-31-19-50v-225c0-19 7-37 19-50 13-13 30-21 48-21h442c18 0 35 7 48 21s19 31 19 50v18c0 18 14 33 31 33h49c5 0 10 2 13 5s5 9 5 14v87c0 5-2 10-5 13s-8 6-13 6h-49c-17 0-31 15-31 33v17c0 19-7 37-19 50-13 13-30 21-48 21h-442z m57-330c-17 0-31 15-31 33v226c0 18 14 33 31 33s31-15 31-33v-226c0-18-14-33-31-33z" horiz-adv-x="1000" />

<glyph glyph-name="battery-empty" unicode="&#xe9a7;" d="M672 100h-442c-35 0-67 15-92 40-24 26-38 61-38 97v226c0 36 14 71 38 97 24 25 58 40 92 40h442c34 0 68-15 92-40 21-22 34-51 37-82h19c21 0 41-9 57-25 15-16 23-37 23-60v-87c0-22-8-44-23-60-16-16-36-25-57-25h-19c-4-30-16-59-37-81-24-26-58-40-92-40z m-442 434c-18 0-35-7-48-21s-19-31-19-50v-225c0-19 7-37 19-50 13-13 30-21 48-21h442c18 0 35 7 48 21s19 31 19 50v18c0 18 14 33 31 33h49c5 0 10 2 13 5s5 9 5 14v87c0 5-2 10-5 13s-8 6-13 6h-49c-17 0-31 15-31 33v17c0 19-7 37-19 50-13 13-30 21-48 21h-442z" horiz-adv-x="1000" />

<glyph glyph-name="table" unicode="&#xe9a8;" d="M803 25h-606c-53 0-97 44-97 98v455c0 53 44 97 97 97h607c53 0 97-43 97-97v-455c0-54-44-98-97-98z m-149 63h149c19 0 35 16 35 35v94h-184v-129z m-245 0h183v129h-183v-129z m-246 129v-94c0-19 15-35 34-35h149v129h-183z m491 62h184v135h-184v-135z m-245 0h183v135h-183v-135z m-246 0h183v135h-183v-135z m460 198h215v101c0 19-16 34-35 34h-606c-19 0-34-15-34-34v-101h460z" horiz-adv-x="1000" />

<glyph glyph-name="calculator" unicode="&#xe9a9;" d="M720-50h-440c-44 0-80 36-80 81v639c0 44 36 80 80 80h440c44 0 80-36 80-80v-639c0-45-36-81-80-81z m-440 738c-10 0-18-8-18-18v-639c0-10 8-18 18-18h440c10 0 18 8 18 18v639c0 10-8 18-18 18h-440z m355-639h0c-24 0-43 19-43 43s19 44 43 44h0c24 0 43-20 43-44s-20-43-43-43h0z m-130 0h0c-24 0-43 19-43 43s20 44 43 44h0c24 0 43-20 43-44s-19-43-43-43h0z m-139 0h0c-24 0-43 19-43 43s19 44 43 44h0c24 0 43-20 43-44s-17-44-44-43z m269 122h0c-24 0-43 20-43 44s19 43 43 43h0c24 0 43-19 43-43s-20-44-43-44h0z m-130 0h0c-24 0-43 20-43 44s20 43 43 43h0c24 0 43-19 43-43s-19-44-43-44h0z m-139 0h0c-24 0-43 20-43 44s19 43 43 43h0c24 0 43-19 43-43s-20-44-43-44h0z m269 123c-23 0-44 20-44 44s20 43 43 43h0c24 0 43-19 43-43s-19-44-43-44h0z m-130 0h0c-24 0-43 20-43 44s20 43 43 43h0c24 0 43-19 43-43s-19-44-43-44h0z m-139 0h0c-24 0-43 20-43 44s19 43 43 43h0c24 0 43-19 43-43s-20-44-43-44h0z m281 148h-294c-30 0-55 25-55 56v98c0 31 25 56 55 56h294c30 0 55-25 55-56v-98c0-31-25-56-55-56z m-287 62h280v85h-280v-85z m287 85h0 0z" horiz-adv-x="1000" />

<glyph glyph-name="ai-edit" unicode="&#xe9ab;" d="M696-50c-15 0-28 10-31 25-15 75-74 136-148 150-6 2-12 5-16 9-5 4-8 10-9 16-4 17 7 34 24 37 74 15 134 76 148 150 3 15 16 26 31 26h0c15 0 28-11 31-25 15-75 75-136 148-150 7-2 12-5 17-9 4-4 7-10 9-16 3-17-8-34-25-37-74-15-133-76-148-151-3-14-16-25-30-25h0z m-88 207c36-22 66-53 88-89 22 36 52 66 88 88-36 22-66 53-88 89-22-36-52-66-88-88z m-476-72c-8 0-17 3-22 9-8 8-11 19-8 30l47 185c2 6 4 11 8 15l390 388c11 12 25 21 42 28 38 14 69 13 99 0 14-5 27-14 39-25 3-2 6-4 8-7 10-10 18-23 24-38 6-15 10-32 10-49s-4-34-10-50c-8-18-18-31-29-42l-389-387c-4-4-9-7-15-8l-186-47c-2-1-5-1-7-1z m75 201l-32-126 127 32 350 348-95 94-350-348z m396 392l92-92c2 3 3 7 5 11 3 7 5 15 5 24s-2 17-5 26c-4 8-9 16-14 21 0 0 0 0-1 1 0 0 0 0 0 0-6 6-13 11-21 14-17 7-32 7-53 0-3-1-6-3-8-5z" horiz-adv-x="1000" />

<glyph glyph-name="ai-file" unicode="&#xe9ac;" d="M675-50c-15 0-28 10-30 25-17 88-85 158-170 176-2 0-3 1-5 1-5 2-8 4-11 7s-6 7-8 12c-1 3-2 7-2 11s1 7 2 11c2 4 4 8 7 11s7 6 12 8c1 0 3 1 5 1 84 18 152 88 169 175 3 15 15 26 30 26h0c15 0 28-11 31-26 17-87 85-157 169-175 2 0 3-1 5-1 5-2 8-4 11-7s6-7 8-12c1-3 2-7 2-11s-1-7-2-11c-2-4-4-8-7-11s-7-6-12-8c-1 0-3-1-5-1-84-18-152-88-169-176-3-15-15-25-30-25h0z m-107 231c45-26 82-64 107-109 26 45 63 84 107 109-44 26-82 64-107 110-25-46-62-84-107-110z m-107-144h-280c-21 0-41 8-57 23-16 16-24 37-24 59v549c0 22 8 42 23 58 16 16 36 24 58 24h352c21 0 42-8 57-24l94-95c15-15 24-36 24-58v-79c0-17-14-31-31-31s-31 14-31 31v79c0 5-2 10-6 13l-94 96c-4 3-8 5-13 5h-352c-6 0-11-3-13-5-4-4-6-9-6-14v-549c0-7 3-11 6-14 3-3 8-5 13-5h280c17 0 31-14 31-32s-14-31-31-31z m-57 325h-122c-18 0-31 14-31 31s14 32 31 32h122c18 0 31-14 31-32s-14-31-31-31z m123 121h-246c-17 0-31 14-31 32s14 31 31 31h246c18 0 32-14 32-31s-14-32-32-32z" horiz-adv-x="1000" />

<glyph glyph-name="ai-search" unicode="&#xe9ad;" d="M869-49c-8 0-16 3-22 9l-209 210c-24-20-51-36-81-49-43-18-85-26-129-26-41 0-83 8-122 23-40 16-76 40-107 70-30 30-55 66-72 106h0c-17 41-26 84-26 126-1 42 7 85 24 125 16 40 40 76 70 107 30 31 65 55 106 72 43 18 86 27 129 26 41 0 83-8 122-24 40-16 77-40 107-70 31-30 55-65 72-106 18-41 26-84 26-126 1-42-7-85-23-125-13-32-30-61-52-87l209-209c12-12 12-32 0-44-6-6-14-9-22-9v1z m-685 368c14-32 34-61 58-86 25-24 54-43 87-57 32-13 67-19 102-19 34 0 68 7 102 21 30 13 57 31 80 53 1 2 2 3 3 4 1 1 2 2 4 3 24 24 42 53 55 85 13 33 20 68 19 102 0 34-7 68-21 102-14 33-33 61-58 86s-54 43-87 57c-33 13-67 19-102 19-34 0-68-7-102-21-33-14-61-34-86-59s-43-54-56-86c-13-33-20-68-19-102 0-34 7-68 21-102z m244-95h0c-15 0-28 11-30 25-14 72-71 129-141 144-17 3-28 20-24 37 1 6 4 12 9 16 4 4 10 7 16 9 70 14 126 71 140 143 3 14 16 25 31 25s28-10 30-25c14-72 71-129 141-143 17-4 28-20 24-37-1-7-4-12-9-16-4-5-10-8-16-9-70-14-126-72-140-144-3-14-16-25-31-25z m-82 199c33-20 62-49 82-82 20 34 48 62 82 83-33 20-62 49-82 82-20-34-48-62-82-83z" horiz-adv-x="1000" />

<glyph glyph-name="ai" unicode="&#xe9ae;" d="M460 10h-1c-17 0-30 14-30 31-2 204-97 299-297 299-17 0-31 14-31 31s13 31 31 31c202 3 296 98 297 298h0c0 18 14 32 31 32h0c17 0 31-14 31-32h0c-1-199 93-293 297-298 17 0 31-14 31-31 0-17-14-31-31-31-1 0-2 0-3 0-190 0-284-96-294-300-1-17-15-30-31-30z m-154 362c75-30 128-84 157-162 31 76 83 130 154 161-74 30-127 82-158 154-30-71-81-122-153-153z m490 294h-34v34c0 18-14 31-31 31s-31-14-31-31v-34h-34c-17 0-31-14-31-31s14-31 31-31h34v-35c0-18 14-31 31-31s31 14 31 31v35h34c17 0 31 14 31 31s-14 31-31 31z m73-568h-34v34c0 17-14 31-31 31s-31-14-31-31v-34h-34c-17 0-31-14-31-31s14-31 31-31h34v-35c0-18 14-32 31-32s31 14 31 32v35h34c17 0 31 14 31 31s-14 31-31 31z" horiz-adv-x="1000" />

<glyph glyph-name="hourglass" unicode="&#xe9b0;" d="M800-50h-600v63h83v137c0 52 46 130 148 200-108 73-148 151-148 199v139h-83v62h600v-62h-83v-139c0-52-46-130-148-200 108-73 148-151 148-199v-137h83v-63z m-455 63h310v137c0 31-42 103-155 170-113-66-155-139-155-170v-137z m0 675v-139c0-31 42-103 155-170 113 66 155 139 155 170v139h-310z" horiz-adv-x="1000" />

<glyph glyph-name="patient-add" unicode="&#xe9b1;" d="M695-50c-54 0-107 22-145 62-39 40-60 92-60 147s21 108 60 148c38 39 91 61 145 61s107-22 146-61c38-40 60-92 60-148s-22-107-60-147c-39-40-92-62-146-62z m0 355c-37 0-74-16-101-43-27-28-42-64-42-103s15-76 42-103c53-54 148-55 201 0 27 28 42 64 42 103s-15 75-42 103c-26 27-63 43-100 43h0z m-228-318h-283c-17 0-31 15-31 32v11c0 11 0 19 1 38 2 17 17 30 34 29 17-2 30-17 29-35 0-4 0-8-1-11h251c17 0 31-14 31-31s-14-33-31-33h0z m228 53c-17 0-31 14-31 32v56h-55c-17 0-31 14-31 31s14 32 31 32h55v56c0 17 14 32 31 32s31-14 31-32v-56h56c17 0 31-14 31-32s-14-31-31-31h-56v-56c0-17-14-32-31-32z m-441 49c-5 0-12 0-21 4-4 3-7 5-10 6-1 1-4 3-5 4l-88 91c-15 15-25 36-28 56-4 18-1 40 9 61 7 15 18 28 32 37 13 9 27 15 43 18 16 3 33 2 48-3 7-3 14-6 20-9 7 4 15 7 22 9 14 4 31 5 47 2 12-2 28-7 43-18 12-8 23-20 31-36 10-19 14-42 10-63v-1c-5-21-14-40-28-54l-89-90c-6-6-11-9-14-10h0c-9-5-16-4-22-4h0z m-50 216s-5 0-7-1c-7-1-12-3-18-7-5-4-9-8-11-12-4-9-6-17-4-23 1-9 5-17 11-22l80-83 80 82c5 5 9 12 11 22 1 7 0 16-4 22-3 5-7 10-11 13-5 4-12 6-19 8-5 1-12 0-17-1-7-2-12-5-16-9-6-6-15-10-23-10h0c-9 0-17 2-23 8-6 6-12 9-18 11-3 1-7 2-11 2z m172-51h0z m158 83s-6 0-8 1c-35 9-66 12-107 5-17-2-33 9-36 27-3 17 9 33 26 36 50 8 90 5 133-6 16-5 26-22 22-39-4-14-17-24-30-24h0z m-75 86c-42 0-84 17-114 48-29 30-47 71-47 115s17 85 47 115c29 31 71 49 114 49s83-18 113-49c29-29 47-72 47-115s-17-84-47-115c-28-30-71-48-113-48z m0 263c-26 0-51-11-69-29-18-19-29-45-29-71s10-53 28-70c37-39 103-38 138-1 18 19 29 45 29 71s-11 53-28 70c-19 19-44 30-69 30z" horiz-adv-x="1000" />

<glyph glyph-name="patient-subtract" unicode="&#xe9b2;" d="M695-50c-54 0-107 22-145 62-39 40-60 92-60 147s21 108 60 148c38 39 91 61 145 61s107-22 146-61c38-40 60-92 60-148s-22-107-60-147c-39-40-92-62-146-62z m0 355c-37 0-74-16-101-43-27-28-42-64-42-103s15-76 42-103c53-54 148-55 201 0 27 28 42 64 42 103s-15 75-42 103c-26 27-63 43-100 43h0z m-228-318h-283c-17 0-31 15-31 32v11c0 11 0 19 1 38 2 17 17 30 34 29 17-2 30-17 29-35 0-4 0-8-1-11h251c17 0 31-14 31-31s-14-32-31-32h0z m-212 101c-6 0-13 0-22 5-4 3-7 5-10 6-1 1-4 3-5 4l-88 91c-15 15-25 36-28 56-4 18-1 40 9 61 7 15 18 28 32 37 13 9 27 15 43 18 16 3 33 2 48-3 7-3 14-6 20-9 7 4 15 7 22 9 14 4 31 5 47 2 12-2 28-7 43-18 12-8 23-20 31-36 10-19 14-42 10-63v-1c-5-21-14-40-28-54l-89-90c-6-6-11-9-14-10h0c-9-5-16-5-21-5h0z m-51 217s-5 0-7-1c-7-1-12-3-18-7-5-4-9-8-11-12-4-9-6-17-4-23 1-9 5-17 11-22l80-83 80 82c5 5 9 12 11 22 1 7 0 16-4 22-3 5-7 10-11 13-5 4-12 6-19 8-5 1-12 0-17-1-7-2-12-5-16-9-6-6-15-10-23-10h0c-9 0-17 2-23 8-6 6-12 9-18 11-3 1-7 2-11 2z m172-51h0z m406-126h-173c-17 0-31 14-31 31s14 32 31 32h173c17 0 31-14 31-32s-14-31-31-31z m-248 209s-6 0-8 1c-35 9-66 12-107 5-17-2-33 9-36 27-3 17 9 33 26 36 50 8 90 5 133-6 16-5 26-22 22-39-4-14-17-24-30-24h0z m-75 86c-42 0-84 17-114 48-29 30-47 71-47 115s17 85 47 115c29 31 71 49 114 49s83-18 113-49c29-29 47-72 47-115s-17-84-47-115c-28-30-71-48-113-48z m0 263c-26 0-51-11-69-29-18-19-29-45-29-71s10-53 28-70c37-39 103-38 138-1 18 19 29 45 29 71s-11 53-28 70c-19 19-44 30-69 30z" horiz-adv-x="1000" />

<glyph glyph-name="patient" unicode="&#xe9b3;" d="M842-50h-597c-18 0-31 14-31 31v11c0 5-1 7 1 29 1 17 16 30 34 29 17-1 30-16 29-33v-4h533c-1 73-10 179-77 241-58 54-135 79-212 74-18 0-33 12-34 30-1 17 12 32 30 33 95 5 189-26 260-91 97-90 97-239 97-319 0-17-14-31-31-31h-2z m-542 121c-4 0-12 0-22 5-6 3-13 7-19 14l-101 101c-17 17-29 39-31 62-4 20 0 44 10 66 8 17 21 31 36 41 16 10 32 17 49 19 18 3 36 2 52-3 9-2 18-6 26-11 9 5 18 9 27 11 18 6 37 7 55 2 15-2 33-9 46-20 14-9 27-23 35-39 10-20 14-45 10-68v-1c-4-25-16-46-32-61l-103-102c-10-9-13-10-16-11-9-5-18-5-22-5 0 0 0 0 0 0z m7 60h0z m-65 188c-4 0-7 0-10-1-8-1-15-5-23-10-6-4-12-10-15-16-4-10-6-21-4-30 1-11 6-19 13-27l98-98 96 97c9 8 13 19 14 27 2 10 0 21-4 29-4 7-9 13-15 17-7 5-14 8-23 9-8 2-16 2-24-1-8-2-16-6-21-11-6-6-15-9-23-10-8-1-18 2-24 8-8 7-15 11-21 13-5 1-10 4-15 4h0z m201-63h0z m102 154c-46 0-89 18-122 50-32 31-50 75-50 120s18 89 50 120c32 32 76 50 122 50s89-18 121-50c32-31 51-74 51-120s-19-88-51-120c-31-32-76-50-121-50z m0 279c-28 0-57-12-76-32-21-20-32-48-32-76s11-57 31-76c42-41 114-40 154 0 20 20 32 48 32 76s-12 57-32 76c-21 20-49 32-76 32h0z" horiz-adv-x="1000" />

<glyph glyph-name="message-filled" unicode="&#xe9b4;" d="M877 727c-15 15-36 23-57 23h-639c-22 0-42-8-57-23s-24-36-24-57v-491c0-22 9-42 24-57 15-16 35-24 57-24h67v-116c0-12 6-23 17-28 5-2 9-4 14-4 7 0 13 2 19 6l188 142h333c22 0 42 8 57 23 16 15 24 36 24 57v492c0 21-9 42-24 57z" horiz-adv-x="1000" />

<glyph glyph-name="subtract-filled" unicode="&#xe9b5;" d="M783 633c-74 75-177 117-283 117s-208-42-283-117c-74-74-117-177-117-283s42-207 117-283c75-75 178-117 283-117s209 43 283 117c75 75 117 178 117 283s-43 209-117 283z m-135-314h-295c-17 0-31 14-31 31s14 32 31 32h295c17 0 32-14 32-32s-14-31-32-31z" horiz-adv-x="1000" />

<glyph glyph-name="smiley-sad" unicode="&#xe9b6;" d="M500-50c-220 0-400 180-400 400s180 400 400 400 400-179 400-400-179-400-400-400z m0 738c-186 0-337-152-337-338s151-337 337-337 338 151 338 337-152 338-338 338z m198-566c-11 0-22 7-28 18-16 32-40 58-70 77-60 37-140 37-200 0-30-19-55-46-70-77-8-16-27-22-42-14-16 7-22 26-14 42 21 42 53 77 93 102 80 50 186 50 266 0 40-25 72-60 93-102 8-16 2-34-14-42-4-2-9-4-14-4z m-75 283h0c-24 0-43 20-43 44s19 43 43 43h0c24 0 44-19 44-43s-20-44-44-44h0z m-246 0h0c-24 0-43 20-43 44s19 43 43 43h0c24 0 44-19 44-43s-19-43-44-44z" horiz-adv-x="1000" />

<glyph glyph-name="smiley-smile" unicode="&#xe9b7;" d="M500-50c-220 0-400 180-400 400s180 400 400 400 400-179 400-400-179-400-400-400z m0 738c-186 0-337-152-337-338s151-337 337-337 338 151 338 337-152 338-338 338z m0-590c-47 0-93 13-133 38-40 25-72 60-93 102-7 16-1 34 14 42 16 8 34 2 42-14 16-31 40-58 70-77 61-37 140-37 201 0 30 19 54 46 70 77 7 16 26 22 42 14 15-7 22-26 14-42-21-42-53-77-93-102-40-25-86-38-133-38z m123 307h0c-24 0-43 20-43 44s19 43 43 43h0c24 0 44-19 44-43s-20-44-44-44h0z m-246 0h0c-24 0-43 20-43 44s19 43 43 43h0c24 0 44-19 44-43s-19-43-44-44z" horiz-adv-x="1000" />

<glyph glyph-name="lock-filled" unicode="&#xe9b8;" d="M745 455h-42v92c0 54-21 105-59 144-38 38-89 60-144 60s-105-21-143-60c-37-37-59-90-59-143v-92h-42c-59 0-80-48-80-80v-344c0-60 48-81 80-81h489c59 0 81 48 81 81v344c0 59-48 80-81 80z m-384 92c0 37 15 74 41 100 52 53 145 53 197 0 27-27 41-62 41-100v-92h-279v92z m170-394c0-17-14-31-31-31s-31 14-31 31v99c0 17 14 31 31 31s31-14 31-31v-99z" horiz-adv-x="1000" />

<glyph glyph-name="unlock-filled" unicode="&#xe9b9;" d="M747 455h-43v92c0 54-21 106-59 144-38 38-89 60-143 60s-106-21-143-60c-25-24-42-54-52-88-4-16 5-34 22-38 16-5 34 5 38 21 7 24 19 44 36 61 52 53 145 54 197 0 26-26 41-62 41-99v-92h-384c-59 0-80-48-80-80v-344c0-60 48-81 80-81h489c59 0 80 48 80 81v344c0 59-48 80-80 80z m-213-302c0-17-14-31-31-31s-31 14-31 31v99c0 17 14 31 31 31s31-14 31-31v-99z" horiz-adv-x="1000" />

<glyph glyph-name="add" unicode="&#xf104;" d="M500-50c-107 0-207 41-283 117-75 76-117 176-117 283s42 208 117 283c76 76 176 117 283 117s208-41 283-117c76-75 117-176 117-283s-41-207-117-283c-75-76-176-117-283-117z m0 738c-90 0-175-35-238-99-64-64-99-149-99-239s35-175 99-238 148-99 238-99 175 35 239 99c64 63 99 148 99 238s-35 175-99 239-149 99-239 99z m0-521c-17 0-31 14-31 31v121h-116c-18 0-31 14-31 31s14 31 31 31h116v116c0 18 14 31 31 31s31-14 31-31v-116h121c17 0 31-14 31-31s-14-31-31-31h-121v-121c0-17-14-31-31-31z" horiz-adv-x="1000" />

<glyph glyph-name="add-filled" unicode="&#xf105;" d="M783 633c-75 76-176 117-283 117s-207-41-283-117c-75-75-117-176-117-283s42-207 117-283 176-117 283-117 208 41 283 117c76 76 117 176 117 283s-41 208-117 283z m-133-312h-121v-121c0-17-14-31-31-31s-31 14-31 31v121h-116c-17 0-31 14-31 31s14 31 31 31h116v117c0 17 14 31 31 31s31-14 31-31v-117h121c17 0 31-14 31-31s-14-31-31-31z" horiz-adv-x="1000" />

<glyph glyph-name="affirm" unicode="&#xf106;" d="M500-50c-107 0-207 41-283 117s-117 176-117 283 42 208 117 283c76 76 176 117 283 117s208-41 283-117 117-176 117-283-41-207-117-283c-75-76-176-117-283-117z m0 738c-90 0-175-35-238-99-64-64-99-149-99-239s35-175 99-238c63-64 148-99 238-99s175 35 239 99c64 63 99 148 99 238s-35 175-99 239c-64 63-149 99-239 99z m-67-519h-2c-9 0-19 4-27 9-8 5-15 12-20 20l-61 100c-9 15-4 34 11 43 14 9 34 5 43-10l57-94 190 280c10 15 29 18 44 9 14-10 18-29 8-44l-196-288c-5-7-12-14-20-19-8-4-17-7-27-7z m5 61h0z" horiz-adv-x="1000" />

<glyph glyph-name="affirm-filled" unicode="&#xf107;" d="M783 633c-75 76-176 117-283 117s-207-41-283-117c-75-75-117-176-117-283s42-207 117-283 176-117 283-117 208 41 283 117c76 76 117 176 117 283s-41 208-117 283z m-107-150l-196-288c-5-8-12-15-20-19-8-5-17-7-27-7h-2c-9 0-19 3-27 8-8 5-15 12-20 21l-61 100c-9 14-4 34 11 43 14 9 34 4 43-11l57-94 190 281c10 14 29 18 44 8 14-9 18-29 8-43z" horiz-adv-x="1000" />

<glyph glyph-name="alarm-bell" unicode="&#xf108;" d="M500-50c-35 0-70 13-97 36-26 22-45 52-56 85h-141c-12 0-22 7-28 19-5 11-4 24 4 34 0 0 42 64 42 262 0 77 29 149 81 204 44 46 102 75 164 82v46c0 18 14 33 31 33s31-15 31-33v-46c62-7 119-36 164-82 52-55 80-127 80-204 0-211 39-258 39-258 11-8 14-22 9-35s-17-21-30-21h-141c-10-34-29-64-55-86-28-23-62-36-97-36z m-85 121c7-13 16-25 27-34 34-28 82-28 116 0 11 9 20 21 27 34h-170z m-160 65h487c-15 45-29 120-29 249 0 60-22 116-62 158-40 42-94 65-150 66-1 0-1 0-2 0-57 0-110-24-150-66-40-42-62-98-62-158 0-126-16-204-31-249z" horiz-adv-x="1000" />

<glyph glyph-name="alarm-bell-overdue" unicode="&#xf109;" d="M426-50c-34 0-69 13-97 36-26 22-45 51-56 85h-142c-12 0-23 7-28 18-5 11-4 24 4 34 0 0 42 64 42 261 0 77 29 149 81 204 45 47 103 76 165 83v46c0 18 14 33 31 33s31-15 31-33v-46s2 0 3 0c17-3 29-20 26-37-2-18-19-30-35-28-67 11-131-15-177-63-41-43-63-99-63-158 0-126-16-204-31-249h488s0 0 0 1c-5 17 3 35 20 41 16 6 34-3 39-20 8-23 15-31 15-31 10-8 13-22 9-35-5-13-17-21-31-21h-141c-10-34-30-63-55-85-27-24-62-36-98-36z m-85 121c7-13 16-25 27-34 35-28 84-28 117 0 11 9 20 21 27 34h-171z m347 160c-56 0-111 23-151 64-39 41-62 98-62 157s23 115 62 156c40 41 94 65 151 65s111-24 150-65 62-98 62-156-22-116-62-157c-39-41-94-64-150-64z m0 377c-40 0-79-16-106-45-28-29-44-70-44-111s16-81 43-110c56-58 157-58 213 0 28 29 44 69 44 110s-16 82-44 111c-28 29-67 45-106 45z m58-189h-57c-17 0-31 14-31 32v86c0 18 14 33 31 33s31-15 31-33v-53h26c17 0 31-15 31-33s-14-32-31-32z" horiz-adv-x="1000" />

<glyph glyph-name="alarm-bell-filled" unicode="&#xf10b;" d="M393 62h213l-11-40c-6-21-19-40-36-52-17-13-38-20-59-20s-43 7-60 20c-17 13-29 31-35 52l-12 40z m421 90s-39 45-39 247c0 74-28 144-80 196-45 45-102 71-164 78v46c0 17-14 31-31 31s-31-14-31-31v-46c-62-7-119-33-164-78-52-52-81-122-81-196 0-189-42-251-42-251-8-9-9-22-4-33 5-10 16-17 28-17h587c13 0 26 7 30 20s1 25-9 34z" horiz-adv-x="1000" />

<glyph glyph-name="align-center" unicode="&#xf10d;" d="M820 0h-639c-18 0-31 15-31 34s14 33 31 33h639c17 0 31-15 31-33s-14-34-31-34z m-99 159h-442c-18 0-31 15-31 33s14 34 31 34h442c17 0 31-15 31-34s-14-33-31-33z m148 158h-738c-17 0-31 15-31 33s14 34 31 34h738c17 0 31-15 31-34s-14-33-31-33z m-148 158h-442c-18 0-31 15-31 33s14 34 31 34h442c17 0 31-15 31-34s-14-33-31-33z m99 158h-639c-18 0-31 15-31 34s14 33 31 33h639c17 0 31-15 31-33s-14-34-31-34z" horiz-adv-x="1000" />

<glyph glyph-name="align-left" unicode="&#xf10e;" d="M820 0h-689c-17 0-31 15-31 34s14 33 31 33h689c17 0 31-15 31-33s-14-34-31-34z m-99 158h-590c-17 0-31 15-31 34s14 33 31 33h590c17 0 31-15 31-33s-14-34-31-34z m148 159h-738c-17 0-31 15-31 33s14 34 31 34h738c17 0 31-15 31-34s-14-33-31-33z m-148 158h-590c-17 0-31 15-31 33s14 34 31 34h590c17 0 31-15 31-34s-14-33-31-33z m99 158h-689c-17 0-31 15-31 34s14 33 31 33h689c17 0 31-15 31-33s-14-34-31-34z" horiz-adv-x="1000" />

<glyph glyph-name="align-right" unicode="&#xf10f;" d="M869 0h-688c-18 0-31 15-31 34s14 33 31 33h688c17 0 31-15 31-33s-14-34-31-34z m0 158h-590c-18 0-31 15-31 34s14 33 31 33h590c17 0 31-15 31-33s-14-34-31-34z m0 159h-738c-17 0-31 15-31 33s14 34 31 34h738c17 0 31-15 31-34s-14-33-31-33z m0 158h-590c-18 0-31 15-31 33s14 34 31 34h590c17 0 31-15 31-34s-14-33-31-33z m0 158h-688c-18 0-31 15-31 34s14 33 31 33h688c17 0 31-15 31-33s-14-34-31-34z" horiz-adv-x="1000" />

<glyph glyph-name="ambulance" unicode="&#xf111;" d="M648 25c-28 0-55 11-75 31-5 5-10 12-14 18h-191c-4-6-9-13-15-18-9-10-21-18-34-23-26-10-55-10-80 0-13 6-25 13-34 23-6 6-11 12-15 19h-9c-21 0-42 8-57 23-15 15-24 36-24 57v343c0 22 9 42 24 57s35 23 57 23h141c1 26 12 49 30 68 40 39 109 39 149 0 18-18 29-42 30-68h43c21 0 42-8 57-23 7-8 13-16 17-26h84c18 0 36-6 50-17 14-11 24-26 28-44l14-74 40-27c11-7 20-17 27-29 6-12 9-25 9-38v-145c0-22-8-42-23-57-15-15-36-24-57-24h-83c-4-6-9-12-15-18-19-20-46-31-74-31z m-40 90c2-6 6-11 10-15 16-16 44-16 60 0 4 4 7 9 9 15 0 1 1 2 1 2 2 4 2 9 2 13 0 11-4 22-12 30-16 16-44 16-60 0-8-8-13-19-13-30 0-4 1-9 2-13 0-1 1-1 1-2z m-369 0s0-1 0-1c2-5 6-10 9-14 4-4 9-7 14-9 11-5 22-5 33 0 5 2 10 5 13 9 4 4 7 8 9 13 0 0 0 1 0 1 0 1 0 2 1 2 1 5 2 9 2 13 0 6-1 11-3 16-2 5-6 10-9 14-4 4-9 7-14 9-11 4-22 4-33 0-5-2-10-6-14-9-4-4-7-9-9-14-2-5-3-10-3-16 0-4 1-9 2-13 0 0 1-1 1-2z m514 22h67c5 0 10 2 13 5 3 4 5 8 5 13v145c0 3 0 6-2 9-1 2-3 4-6 6l-52 35c-7 4-12 12-13 20l-16 86s-2 5-6 8-7 4-11 4h-78v-233c26-1 50-12 68-30 18-18 29-43 30-68z m-369 0h159c1 25 12 49 30 67 6 6 12 11 19 15v279c0 5-2 9-6 12-3 4-8 5-12 5h-393c-5 0-10-2-13-5s-5-8-5-12v-344c0-5 2-9 5-12 2-2 4-3 7-4 1 11 3 22 7 32 6 13 13 25 23 34 10 10 21 18 34 23 26 10 55 10 81 0 13-6 24-13 34-23 10-10 17-21 23-34 4-10 7-22 8-33z m1 441h84c-2 9-6 17-12 24-16 16-44 16-60 0-7-7-11-15-12-24z m-8-332c-17 0-31 14-31 31v43h-42c-18 0-31 14-31 31s14 31 31 31h42v42c0 17 14 31 31 31s31-14 31-31v-42h43c17 0 31-14 31-31s-14-31-31-31h-43v-43c0-17-14-31-31-31z" horiz-adv-x="1000" />

<glyph glyph-name="app-sync" unicode="&#xf115;" d="M674-50c-5 0-10 0-15 0-48 4-93 22-129 55-11 10-21 21-30 33v-31c0-18-14-32-31-32s-31 14-31 32v125c0 17 14 31 31 31h22s1 0 1 0h102c17 0 31-14 31-31s-14-32-31-32h-59c9-18 22-35 37-49 26-22 57-35 92-38 34-2 67 6 96 25 28 19 49 47 60 79 6 17 24 25 40 19 17-5 25-23 19-40-16-45-46-84-85-111-35-23-77-36-119-36z m-320 112h-170c-33 0-83 21-83 80v424s0 3 0 5 0 4 0 6v94c0 32 22 79 83 79h632c33 0 83-21 83-79v-206c0-18-14-32-31-32s-31 14-31 32v75h-674v-399c0-11 8-16 22-17h169c17 0 31-14 31-31s-14-32-31-32z m-191 541h674v68c0 11-7 17-21 17h-632c-6 0-20 0-21-17v-68z m683-402h-102c-17 0-31 14-31 31s14 32 31 32h58c-9 18-21 35-37 49-25 22-57 35-91 38-34 3-68-6-96-25-29-19-50-47-61-79-5-16-23-25-39-19-17 5-25 23-20 39 15 45 46 85 86 111 40 26 87 39 135 35 48-3 92-22 128-54 12-10 22-21 31-33v31c0 18 14 32 31 32s31-14 31-32v-125c0-17-14-31-31-31h-23z" horiz-adv-x="1000" />

<glyph glyph-name="app" unicode="&#xf116;" d="M816-25h-632c-33 0-84 22-84 84v582c0 34 23 84 84 84h632c34 0 84-22 84-84v-581c0-34-22-85-84-85z m-653 529v-445c0-5 0-21 22-21h631c6 0 21 0 22 22v444h-675z m0 63h675v74c0 6 0 21-22 22h-632c-5 0-21 0-21-22v-74z" horiz-adv-x="1000" />

<glyph glyph-name="apple" unicode="&#xf117;" d="M602-50c-33 0-63 8-88 23-7 4-21 4-27 0-25-15-56-23-89-23-134 0-260 167-260 343 0 214 154 270 235 270 33 0 67-9 96-27v24c0 56-29 112-93 112-17 0-31 14-31 31s14 31 31 31c46 0 86-19 113-52 25 41 70 67 121 67 25 0 45-20 45-45 0-72-54-131-124-140 0-2 0-4 0-6v-23c28 16 62 26 96 26 82 0 235-56 235-270 0-176-126-343-260-343z m-102 89c17 0 34-4 47-12 10-7 28-14 55-14 98 0 198 141 198 280 0 205-165 208-172 208-42 0-71-22-82-31-21-19-70-19-91 0-11 9-40 31-82 31-7 0-172-3-172-208 0-139 100-280 198-280 27 0 45 7 55 14 13 8 30 12 47 12z m90 646c-27-7-49-28-56-55 27 7 49 28 56 55z" horiz-adv-x="1000" />

<glyph glyph-name="arrow-down-alt" unicode="&#xf11a;" d="M715 500c9 0 18-4 25-11 7-7 11-17 11-27s-4-20-11-27l-202-218c-5-5-11-9-17-12-7-3-14-5-21-5s-14 2-20 5c-7 3-13 7-18 12l-202 218c-6 7-9 17-9 27 0 10 4 19 11 26 6 7 15 11 24 11l430 2z" horiz-adv-x="1000" />

<glyph glyph-name="arrow-down" unicode="&#xf11b;" d="M500 163c-7 0-13 1-20 4-6 2-12 6-17 11l-304 306c-12 13-12 32 0 45s32 12 44 0l297-299 296 299c12 12 32 12 44 0 12-13 12-32 0-45l-304-306c-5-5-10-8-17-11-6-3-13-4-20-4z" horiz-adv-x="1000" />

<glyph glyph-name="arrow-left-alt" unicode="&#xf11d;" d="M584 590l-214-195c-6-6-11-13-15-21-3-7-5-16-5-24 0-8 2-16 5-24 4-7 8-14 14-20l215-196c7-7 17-10 28-10 10 0 20 4 27 11 7 7 11 17 11 27v424c0 10-4 19-11 27-4 3-8 6-13 8-4 2-10 3-15 3-5 0-10 0-15-2-5-2-9-5-13-8z" horiz-adv-x="1000" />

<glyph glyph-name="arrow-left" unicode="&#xf11e;" d="M656 0c-8 0-16 3-22 9l-306 304c-5 5-9 10-12 17-2 6-4 13-4 20s2 13 4 20c3 6 7 12 12 17l306 303c12 12 32 12 44 0 12-12 12-32 0-44l-298-296 298-297c12-12 12-32 0-44-6-6-14-9-22-9z" horiz-adv-x="1000" />

<glyph glyph-name="arrow-right-alt" unicode="&#xf123;" d="M417 590l214-195c6-6 11-13 14-21 4-7 5-16 5-24 0-8-1-16-5-24-3-7-8-14-14-20l-214-196c-8-7-18-10-28-10-11 0-20 4-28 11-7 7-11 17-10 27v424c0 10 3 19 11 27 3 3 8 6 12 8 5 2 10 3 15 3 5 0 11 0 15-2 5-2 9-5 13-8z" horiz-adv-x="1000" />

<glyph glyph-name="arrow-right" unicode="&#xf124;" d="M344 700c8 0 16-3 23-9l306-303c5-5 9-11 11-17 3-7 4-13 4-20s-1-14-4-20c-2-7-6-12-11-17l-306-304c-13-12-33-12-45 0-12 12-12 32 0 44l299 297-299 296c-12 12-12 32 0 44 6 6 14 9 23 9z" horiz-adv-x="1000" />

<glyph glyph-name="arrow-up-alt" unicode="&#xf128;" d="M273 203c4-2 9-3 14-3h427c5 0 9 1 14 3 4 2 8 5 12 8 3 4 6 8 8 13 2 5 2 10 2 15 0 5-1 11-3 15-2 5-5 9-8 13l-201 216c-5 6-11 10-17 13-7 3-14 4-21 4s-14-1-20-4c-7-3-13-7-18-13l-200-216c-4-4-7-8-9-13-2-4-3-10-3-15 0-5 1-10 3-15 2-5 4-9 8-13 3-3 7-6 12-8z" horiz-adv-x="1000" />

<glyph glyph-name="arrow-up" unicode="&#xf129;" d="M150 194c0 8 3 16 9 23l304 306c5 5 10 9 17 11 6 3 13 4 20 4s13-1 20-4c6-2 12-6 17-11l303-306c12-13 12-33 0-45-12-12-32-12-44 0l-296 299-297-299c-12-12-32-12-44 0-6 6-9 14-9 23z" horiz-adv-x="1000" />

<glyph glyph-name="astro-mech" unicode="&#xf12c;" d="M844-50h-147c-17 0-31 14-31 31v67h-52l15-60c3-9 0-19-5-27-6-7-15-12-25-12h-196c-10 0-19 5-25 12-6 8-8 18-5 27l15 60h-52v-67c0-17-14-31-31-31h-147c-17 0-31 14-31 31v344c0 48 18 93 52 127 26 26 59 43 95 49v21c0 61 24 118 67 161 43 43 100 66 161 66s118-24 161-66c43-43 66-101 66-161v-21c36-6 69-23 95-49 34-34 53-79 53-127v-344c0-17-14-31-31-31z m-116 63h85v36h-85v-36z m-286 0h116l-9 36h-98l-9-36z m-254 0h85v36h-85v-36z m540 98h85v215c0 31-12 60-34 82-15 14-32 24-51 30v-327z m-393 0h331v331h-331v-331z m-147 0h85v327c-19-6-37-16-51-30-22-22-34-51-34-82v-215z m147 393h331v18c0 44-17 86-49 117-62 62-171 62-233 0-31-31-49-73-49-117v-18z m116-357c-44 0-80 36-80 80s36 81 80 81 81-36 81-81-36-80-81-80z m0 98c-10 0-18-8-18-18s8-18 18-18 18 8 18 18-8 18-18 18z m147 99h-196c-17 0-31 14-31 31s14 31 31 31h196c17 0 31-14 31-31s-14-31-31-31z m-98 209h0c-24 0-43 19-43 43s19 44 43 44h0c24 0 44-20 44-44s-20-43-44-43h0z" horiz-adv-x="1000" />

<glyph glyph-name="at-symbol" unicode="&#xf12d;" d="M500-50c-3 0-7 0-10 0-90 2-177 35-246 93-69 58-117 138-136 226-18 88-6 180 34 260s107 146 188 184c82 38 174 47 262 27 87-21 166-71 222-141 55-71 86-159 86-248v-74c0-34-14-68-38-92-49-49-134-49-183 0-10 10-18 21-24 34-21-25-47-44-77-56-37-16-78-20-118-12-39 8-75 27-104 56-28 28-48 64-55 104-8 39-4 80 11 117 16 38 42 69 75 92 78 52 191 41 257-26 39-38 60-89 60-144v-74c0-17 7-35 19-47 26-26 70-26 95 0 13 12 20 29 20 47v74c0 76-26 150-73 210-47 59-114 101-187 119-74 17-152 9-221-23-68-32-125-87-159-155-34-68-44-146-28-220 15-74 56-142 114-190 58-49 132-77 207-78 75-3 151 22 212 67 13 11 33 8 44-6 10-14 7-34-7-44-69-53-154-81-240-81z m0 541c-28 0-55-8-78-23-23-16-41-38-52-63-11-26-14-54-8-82 5-27 19-52 38-72 20-20 45-33 72-38 28-6 56-3 82 8 26 10 47 28 63 52s23 50 23 78c0 38-14 73-41 100-26 26-63 41-100 41z" horiz-adv-x="1000" />

<glyph glyph-name="avoid" unicode="&#xf12f;" d="M500-50c-106 0-206 41-282 117 0 0 0 0-1 0 0 0 0 1-1 1-75 76-116 176-116 282s41 208 117 283c75 76 176 117 283 117s207-41 282-117c0 0 0 0 0 0 76-75 117-176 117-282s-41-208-117-283c-75-76-176-118-283-118z m-215 141c60-51 136-78 215-78 90 0 175 35 239 99 64 63 99 148 99 238 0 80-28 155-78 216l-475-475z m215 597c-90 0-175-35-238-99-64-64-99-149-99-239 0-79 27-155 77-215l476 475c-61 50-136 78-216 78z" horiz-adv-x="1000" />

<glyph glyph-name="badge" unicode="&#xf131;" d="M820 0h-639c-22 0-42 9-57 24-15 15-24 35-24 57v442c0 21 9 41 24 57 15 15 35 23 57 23h215c1 26 12 50 30 68 40 39 109 39 149 0 18-18 29-42 30-68h215c22 0 42-8 57-23 15-15 24-36 24-57v-442c0-22-9-42-24-57-15-15-35-24-57-24z m-267 63h267c5 0 9 2 12 5 4 4 6 8 6 13v442c0 5-2 9-6 12-3 4-8 5-12 5h-215v-42c0-15-6-29-16-40-11-10-25-16-40-16h-98c-15 0-29 6-40 16-10 11-16 25-16 40v42h-214c-5 0-10-2-13-5-3-4-5-8-5-13v-442c0-5 2-9 5-12 4-4 8-6 13-6h20c7 36 24 69 50 95 16 16 35 29 56 38-5 4-9 7-13 11-11 11-19 24-25 38-6 15-9 30-9 45s3 31 9 45c6 15 14 27 25 38 11 11 24 20 38 26 29 11 61 12 90 0 14-6 27-15 38-26 11-11 19-23 25-38 6-14 9-29 9-45s-3-30-9-45c-6-14-14-27-25-38-4-4-8-7-13-11 21-9 40-21 56-38 27-26 44-59 50-95z m-288 0h224c-5 19-15 36-30 51-43 43-121 43-164 0-15-15-25-32-30-51z m112 281c-7 0-14-1-21-4-6-3-12-7-18-12-5-5-9-11-12-17-3-7-4-14-4-21s2-14 4-21c3-7 7-13 12-18 5-5 11-9 18-12 14-6 29-6 42 0 7 2 13 6 18 12 5 5 9 11 12 18 3 6 4 14 4 21s-2 14-4 21c-3 6-7 12-12 18s-11 9-18 12c-7 3-14 4-21 4z m81 161h85v91c0 11-5 22-13 30-16 16-44 16-60 0-8-8-12-19-12-30v-91z m313-308h-197c-17 0-31 14-31 31s14 31 31 31h197c17 0 31-14 31-31s-14-31-31-31z m-50 98h-147c-17 0-32 14-32 32s14 31 32 31h147c17 0 31-14 31-31s-14-32-31-32z" horiz-adv-x="1000" />

<glyph glyph-name="banana" unicode="&#xf132;" d="M510-50c-60 0-119 13-172 40-13 7-23 17-30 28-74 20-141 62-190 120-19 21-23 49-11 75 14 30 47 50 82 47 188-6 349 131 361 312l-9 24-17 19c-16 17-22 41-16 63 5 23 21 41 43 49l53 19c25 9 52 3 70-15 50-49 169-174 206-278 68-193-38-408-237-480-43-16-88-24-133-24z m-148 100s1-2 4-3c78-39 172-45 256-14 166 60 255 239 199 399-33 93-154 218-191 254-1 1-3 1-5 1l-53-19s-3-3-4-4 0-4 2-6l20-22s0 0 1-1l35-38c3-3 5-7 6-11 0-1 1-2 1-3 17-47 24-97 21-146-2-53-16-107-41-157-44-87-116-156-206-196-9-4-18-8-28-11h0c-7-3-12-9-15-14-1-2-1-4-1-6h0s0-1 0-1c0 0 0 0 0 0z m-177 147c-11 0-19-6-21-11-1-2-1-3 1-6 38-44 88-77 143-95 9 21 27 38 50 47 0 0 0 0 1 0 0 0 0 0 1 0 0 0 0 0 0 0 87 32 157 94 197 175 22 44 34 90 35 137 0 7 0 15 0 22-56-163-220-278-405-270h-1z" horiz-adv-x="1000" />

<glyph glyph-name="bandage" unicode="&#xf133;" d="M713-50h-1c-25 0-49 5-72 15-23 10-44 24-61 42l-152 152h0s-119 120-119 120c0 0 0 0-1 0l-152 153c-35 35-55 82-55 132s20 98 55 133c71 71 194 71 265 0h0s0 0 0 0l272-272s0 0 0 0l152-153c18-17 32-37 41-60 10-23 15-48 15-72 0-25-4-49-14-73-9-23-23-43-40-61-18-18-39-32-62-42-22-9-46-14-71-14z m-220 232l130-131c12-12 26-22 41-28 15-7 31-10 48-10 17 0 32 3 48 9 15 7 29 16 41 27 11 12 21 26 27 41 6 16 9 32 9 48 0 17-3 33-10 48-6 16-15 29-27 41l-131 131-177-177z m-119 119l75-75 176 177-74 75-177-177z m-86 388c-34 0-65-13-88-36s-37-55-37-89 13-65 37-88l130-131 177 177-131 131h0c-23 23-55 36-88 36z m465-567c-24 0-44 20-44 44s19 44 43 44h0c24 0 44-19 44-44s-20-44-44-44z m-136 0c-24 0-44 20-44 44s20 44 44 44h0c24 0 43-19 43-44s-19-44-44-44z m-238 374h0c-24 0-43 20-43 44s19 44 44 44 44-19 44-44-20-44-44-44h0z m-135 0h0c-24 0-44 20-44 44 0 24 19 44 44 44 24 0 44-19 44-44s-20-44-44-44h0z" horiz-adv-x="1000" />

<glyph glyph-name="bar-chart-horizontal" unicode="&#xf134;" d="M869-50h-738c-17 0-31 14-31 31v738c0 17 14 31 31 31s31-14 31-31v-84h420c15 0 29-6 40-16 10-11 16-25 16-40v-114c0-15-6-29-16-40-11-10-25-16-40-16h-75v-102h238c6 0 15-1 22-4 7-3 13-7 18-12 6-6 10-12 13-19 3-7 4-14 4-22v-113c0-7-1-14-4-21-3-7-7-13-13-19-5-5-11-9-19-12-6-3-15-4-21-4h-582v-69h706c17 0 31-14 31-31s-14-31-31-31z m-123 194h0 0z m-583 0h577v102s-283 0-283 0c-2 0-4 0-6 0h-288v-102z m0 164h284l-2 101h-282v-101z m288 164h127l-1 101h-414v-101h288z" horiz-adv-x="1000" />

<glyph glyph-name="bar-chart-vertical" unicode="&#xf135;" d="M869-13h-738c-17 0-31 15-31 32s14 31 31 31h19v325c0 15 6 29 16 39 11 11 24 17 39 17h99c15 0 29-6 39-17 10-10 16-24 16-39v-325h37v607c0 15 6 29 17 39s24 17 38 17h100c14 0 28-6 38-17 11-10 16-24 17-39v-607h37v441c0 15 6 29 16 40 11 10 24 16 39 16h99c14 0 28-6 38-16 10-11 16-24 17-39v-442h18c17 0 31-14 31-31s-14-31-31-31z m-166 63h86v435h-86v-435z m-246 0h86v601h-86v-601z m-246 0h86v319h-86v-319z" horiz-adv-x="1000" />

<glyph glyph-name="beetle" unicode="&#xf136;" d="M721 38c-17 0-31 14-31 31 0 30-12 60-34 82-22 22-51 34-82 34h-49c-31 0-60-12-82-34-21-22-34-52-34-82 0-17-14-31-31-31s-31 14-31 31c0 42 16 83 43 115h-61c-31 0-60-12-82-34-21-21-34-51-34-82 0-17-14-31-31-31s-31 14-31 31c0 47 19 93 53 126l2 2c-64 22-104 73-104 141 0 121 118 203 228 203h177c22 39 80 122 192 122s147-59 151-66c7-15 1-34-14-41-16-8-34-2-42 14 0 0-19 30-89 31l-1-3c-11-48-4-101 22-146 32-64 135-34 136-34 9 3 20 1 27-5 8-6 13-15 13-25 0-70-38-203-179-203h-12c28-32 43-73 43-115 0-17-14-31-31-31z m-147 209h147c78 0 104 60 112 102-49-6-127 0-164 73-28 50-40 108-32 165-48-23-74-69-81-85v-256h18z m-246 0h166v231h-166c-78 0-165-57-165-140s89-91 116-91h49z m307 35h0c-24 0-43 20-43 44s19 43 43 43h0c24 0 44-19 44-43s-20-44-44-44h0z" horiz-adv-x="1000" />

<glyph glyph-name="bill" unicode="&#xf137;" d="M820 75h-639c-45 0-81 36-81 80v391c0 44 36 80 81 80h639c44 0 80-36 80-80v-391c0-44-36-80-80-80z m-639 488c-10 0-18-8-18-18v-390c0-10 8-18 18-18h639c10 0 18 8 18 18v390c0 10-8 18-18 18h-639z m565-378h0c-24 0-43 20-43 43s19 43 43 43h0c24 0 44-19 44-43s-20-43-44-43h0z m-246 37c-71 0-129 57-129 128s58 129 129 129 130-58 130-129-58-128-130-128z m0 195c-37 0-67-30-67-67s30-66 67-66 67 30 67 66-30 67-67 67z m-246 12h0c-24 0-43 20-43 43s19 43 43 43h0c24 0 44-19 44-43s-20-43-44-43h0z" horiz-adv-x="1000" />

<glyph glyph-name="blood-drip" unicode="&#xf13d;" d="M784 25c-31 0-61 13-82 34-22 21-34 51-34 81 0 55 72 127 95 148 12 11 31 11 43 0 22-21 95-93 95-148 0-30-13-60-35-81-21-22-51-34-82-34z m0 197c-29-31-54-66-54-82 0-14 6-27 16-37 20-20 55-20 76 0 10 10 16 23 16 37 0 16-26 51-54 82z m-282-183h-184c-12 0-29 0-45 4l-147 25c-17 3-28 19-25 35s19 28 36 25l150-25c10-2 22-2 31-2h184c9 0 19 4 20 14 2 8 0 12-2 16-3 4-9 6-15 6-17 0-31 14-31 31s14 31 31 31h29c11 0 20 8 20 19s-9 20-20 20h-9c-17 0-31 14-31 31s14 31 31 31h34c12 0 20 8 20 19s-8 20-20 20h-34c-17 0-31 14-31 31s13 30 30 31c2 0 4 0 6 0h212c6 0 11 0 15 2 12 5 15 13 15 18 0 8-5 16-13 21-8 4-16 6-25 6h-384c-12 0-24 7-29 19-5 11-2 25 7 33l42 42c17 16 32 39 34 46 0 15-4 25-24 27-10 0-20-4-29-13l-148-146c-12-12-32-12-44 0s-12 32 0 44l148 146c22 21 51 31 78 30 51-4 83-40 81-91-1-27-26-59-41-76h310c18 0 37-5 53-13 31-16 49-47 47-80-2-32-23-60-56-71-11-4-23-6-36-6h-102c1-7 2-13 2-20 0-27-13-51-33-66 5-10 8-22 8-35 0-28-14-53-36-67 5-14 7-29 4-45-5-37-39-66-82-66z" horiz-adv-x="1000" />

<glyph glyph-name="bluetooth" unicode="&#xf13e;" d="M487-50c-5 0-10 1-14 3-11 5-18 16-18 28v285l-150-135c-13-12-34-11-46 1-13 13-12 33 1 44l185 167-184 156c-13 12-14 31-3 44 12 13 33 14 46 3l151-127v300c0 12 7 23 18 28 11 5 24 4 34-3l231-172c7-6 12-14 12-23 0-9-3-18-10-24l-198-180 197-167c8-6 12-15 11-25 0-9-5-18-12-23l-231-173c-6-4-13-6-20-6z m33 330v-234l147 109-147 125z m0 375v-244l148 134-148 110z" horiz-adv-x="1000" />

<glyph glyph-name="bold" unicode="&#xf13f;" d="M545-50h-288c-31 0-57 26-57 58s25 58 57 58h32v568h-32c-31 0-57 26-57 58s25 58 57 58h310c25 0 49-5 72-15 23-10 44-24 62-42 17-18 31-39 41-63 9-24 14-49 14-74s-5-51-14-75c-9-22-22-43-39-60 8-7 16-14 23-21 48-49 75-116 75-186s-27-136-75-186c-49-50-113-77-181-77z m-143 116h143c38 0 74 16 101 43s42 65 42 104-15 77-42 104c-27 28-62 43-100 43 0 0-1 0-2 0h-143v-294z m0 411h141s1 0 2 0h22c10 0 20 2 29 6 10 4 18 9 25 17 7 7 13 16 17 25 4 10 6 20 6 30s-2 21-6 30c-4 10-10 19-17 26-7 7-15 13-25 17-9 4-19 6-29 6h-165v-158z" horiz-adv-x="1000" />

<glyph glyph-name="book-open" unicode="&#xf140;" d="M500-13c-17 0-31 15-31 32 0 22-104 79-306 84-17 0-32 8-44 20-12 12-19 28-19 44v482c0 8 2 17 5 25 4 8 9 15 15 21 6 6 13 10 21 13 9 3 17 5 26 5 132-4 272-33 333-86 61 53 201 82 333 86 8 0 17-1 25-4 9-3 16-8 22-14 6-6 11-13 15-21 3-8 5-17 5-25v-481c0-17-7-33-19-45-11-12-27-19-44-19-202-6-306-62-306-85 0-17-14-31-31-31z m31 579v-465c71 39 190 61 304 64l2 484c-203-4-306-60-306-83z m-366 85l-2-484c115-5 235-26 306-66v465c0 23-104 79-304 85z" horiz-adv-x="1000" />

<glyph glyph-name="bookmark" unicode="&#xf141;" d="M283-50c-10 0-20 2-30 8-17 10-28 29-28 50v658c0 47 35 84 80 84h390c45 0 80-37 80-84v-658c0-22-10-41-27-51-18-11-40-10-57 1l-189 140-187-138s-1-1-2-1c-9-6-20-9-30-9z m15 35h0 0z m7 703c-12 0-20-9-20-22v-652l200 147c10 8 24 8 34 0l199-146-3 651c0 13-8 22-20 22h-390z" horiz-adv-x="1000" />

<glyph glyph-name="bookmark-filled" unicode="&#xf142;" d="M273-45c-20-12-48 0-48 24v714c0 33 24 57 56 57h438c32 0 56-24 56-57v-714c0-25-24-37-44-25l-229 164-229-164z" horiz-adv-x="1000" />

<glyph glyph-name="bookmarked" unicode="&#xf143;" d="M745-50h-490c-21 0-42 8-56 23-15 15-24 36-24 58v590c0 21 9 42 24 57 15 15 35 23 56 23h220c4 10 10 18 17 26 15 15 36 23 57 23h98c21 0 41-8 56-23 8-8 13-16 17-26h24c22 0 42-8 57-23 15-15 23-36 23-57v-590c0-22-8-42-23-58-15-15-36-23-57-23z m-361 63h361c5 0 9 2 12 5 4 4 6 8 6 13v590c0 4-2 9-5 12s-8 6-13 6h-18v-313c0-13-7-24-19-29-11-5-25-2-34 7l-76 76-76-76c-9-9-22-12-34-7-11 5-19 16-19 29v313h-84v-626z m-129 626c-4 0-9-2-12-5s-6-8-6-13v-590c0-5 2-9 5-12 4-4 8-6 13-6h67v626h-67z m276 31v-269l45 45c12 12 32 12 44 0l45-45v269c0 5-2 9-5 12-4 4-8 5-13 5h-98c-4 0-9-2-12-5s-6-8-6-12z" horiz-adv-x="1000" />

<glyph glyph-name="briefcase" unicode="&#xf145;" d="M820-25h-639c-33 0-81 21-81 81v442c0 32 22 80 81 80h149l31 93c6 16 16 30 30 40s30 15 47 15h126c17 0 33-5 47-15 14-10 24-24 29-40l31-93h150c32 0 80-21 80-80v-442c0-33-21-81-80-81z m-469 540h-171c-5 0-17 0-18-18v-442c0-5 0-17 19-18h638c5 0 18 0 18 19v442c0 5 0 17-18 18h-171s-1 0-1 0h-295s-1 0-2 0z m45 63h209l-25 72s0 0 0 0c-1 4-3 7-6 9-3 2-7 3-11 3h-126c-4 0-7-1-10-3-3-2-6-6-7-9l-24-73z m325-431h-442c-17 0-31 14-31 31s14 31 31 31h443c17 0 31-14 31-31s-14-31-31-31z m0 197h-442c-17 0-31 14-31 31s14 31 31 31h443c17 0 31-14 31-31s-14-31-31-31z" horiz-adv-x="1000" />

<glyph glyph-name="brightness" unicode="&#xf146;" d="M500-50c-17 0-31 14-31 31v106c0 17 14 31 31 31s31-14 31-31v-106c0-17-14-31-31-31z m261 108c-8 0-16 3-22 9l-75 75c-12 12-12 32 0 44s32 12 44 0l75-75c12-12 12-32 0-44-6-6-14-9-22-9z m-522 0c-8 0-16 3-22 9-12 12-12 32 0 44l75 75c12 12 32 12 44 0 12-12 12-32 0-44l-75-75c-6-6-14-9-22-9z m261 103c-50 0-98 19-134 55-35 36-55 84-55 134 0 25 5 50 14 73 10 23 24 43 41 61 18 18 39 32 62 41 46 19 99 19 145 0 23-9 43-23 61-41 18-18 32-38 41-61s15-48 15-73c0-50-20-98-56-134-35-35-84-55-134-55z m0 316c-17 0-33-3-48-9-16-7-30-16-41-28s-21-25-28-41c-6-15-9-32-9-48 0-34 13-66 37-90 47-47 132-47 179 0 24 24 37 56 37 90 0 16-3 33-9 48-7 16-16 30-28 41-12 12-25 21-41 28-15 6-32 9-48 9z m369-158h-105c-17 0-31 14-31 31s14 31 31 31h105c17 0 31-14 31-31s-14-31-31-31z m-632 0h-106c-17 0-31 14-31 31s14 31 31 31h106c17 0 31-14 31-31s-14-31-31-31z m449 186c-8 0-16 3-22 9-12 12-12 32 0 44l75 75c12 12 32 12 44 0s12-32 0-44l-75-75c-6-6-14-9-22-9z m-372 0c-8 0-16 3-22 9l-75 75c-12 12-12 32 0 44s32 12 44 0l75-75c12-12 12-32 0-44-6-6-14-9-22-9z m186 77c-17 0-31 14-31 31v106c0 17 14 31 31 31s31-14 31-31v-106c0-17-14-31-31-31z" horiz-adv-x="1000" />

<glyph glyph-name="building-old" unicode="&#xf147;" d="M836-25h-671c-17 0-31 14-31 32v110c0 18 14 32 31 32h3l-3 240c-17 0-31 14-31 32l-3 78c-15 0-27 11-30 25-3 15 4 30 18 36l369 162c8 4 17 4 25 0l369-162c13-6 21-21 18-36-3-14-16-25-31-25h-2v-78c0-18-14-32-31-32h-3l3-240c17 0 31-14 31-32v-110c0-18-14-32-31-32z m-640 63h608l-2 48h-606v-48z m515 111h60v241h-60v-241z m-119 0h57v241h-57v-241z m-121 0h59v241h-59v-241z m-119 0h56v241h-56v-241z m-122 0h59v241h-59v-241z m-34 304h608v47h-608v-47z m85 110h438l-219 96-219-96z" horiz-adv-x="1000" />

<glyph glyph-name="building" unicode="&#xf148;" d="M869-50h-738c-17 0-31 14-31 31s14 31 31 31h44v513c-29 6-49 31-49 63v98c0 37 27 64 64 64h620c37 0 64-27 64-64v-98c0-32-20-57-49-63v-512h44c17 0 31-15 31-32s-14-31-31-31z m-162 63h55v511h-524v-511h288v109c0 50 41 91 90 91s90-41 90-91v-109z m-118 0h55v109c0 16-12 28-27 28s-28-12-28-28v-109z m-398 675l-2-100 621-2 2 2v98l-621 2z m237-623h-98c-18 0-31 14-31 31v98c0 17 14 31 31 31h98c18 0 31-14 31-31v-98c0-17-14-31-31-31z m-67 62h36v36h-36v-36z m310 171h-99c-17 0-31 14-31 31v98c0 18 14 31 31 31h99c17 0 31-14 31-31v-98c0-18-14-31-31-31z m-67 62h36v36h-36v-36z m-176-62h-98c-18 0-31 14-31 31v98c0 18 14 31 31 31h98c18 0 31-14 31-31v-98c0-18-14-31-31-31z m-67 62h36v36h-36v-36z" horiz-adv-x="1000" />

<glyph glyph-name="calendar-add" unicode="&#xf14b;" d="M672-50c-61 0-118 23-161 67-42 42-66 101-66 161s23 118 66 161c43 43 101 67 161 67s119-25 161-67c43-43 67-100 67-161s-24-118-67-161c-43-43-100-67-161-67z m0 394c-44 0-85-17-117-49-31-31-48-73-48-117s17-86 48-117c31-31 73-48 117-48s86 17 117 48 49 74 49 117-17 86-49 117c-31 31-73 49-117 49z m0-295c-17 0-31 14-31 31v67h-67c-17 0-31 14-31 31s14 31 31 31h67v67c0 17 14 31 31 31s31-14 31-31v-67h67c17 0 31-14 31-31s-14-31-31-31h-67v-67c0-17-14-31-31-31z m-295 98h-196c-22 0-42 8-57 23-15 15-24 36-24 57v394c0 21 9 41 24 57 15 15 35 23 57 23h67v18c0 18 14 31 31 31s31-14 31-31v-18h183v18c0 18 14 31 31 31s32-14 32-31v-18h67c21 0 41-8 57-23 15-15 23-36 23-57v-148c0-17-14-31-31-31s-31 14-31 31v18h-478v-263c0-5 2-10 5-13 3-3 8-5 12-5h197c17 0 31-14 31-31s-14-31-31-31z m-214 407h478v67c0 5-2 9-5 12s-8 6-12 6h-67v-18c0-18-14-31-32-31s-31 14-31 31v18h-183v-18c0-18-14-31-31-31s-31 14-31 31v18h-67c-5 0-10-2-13-5s-5-8-5-13v-67z" horiz-adv-x="1000" />

<glyph glyph-name="calendar-due" unicode="&#xf14d;" d="M672-50c-61 0-118 23-161 67-42 42-66 101-66 161s23 118 66 161c43 43 101 67 161 67s119-25 161-67c43-43 67-100 67-161s-24-118-67-161c-43-43-100-67-161-67z m0 394c-44 0-85-17-117-49-31-31-48-73-48-117s17-86 48-117c31-31 73-48 117-48s86 17 117 48 49 74 49 117-17 86-49 117c-31 31-73 49-117 49z m87-197h-87c-17 0-31 14-31 31v87c0 17 14 31 31 31s31-14 31-31v-56h56c17 0 31-14 31-31s-14-31-31-31z m-382 0h-196c-22 0-42 8-57 23-15 15-24 36-24 57v394c0 21 9 41 24 57 15 15 35 23 57 23h67v18c0 18 14 31 31 31s31-14 31-31v-18h183v18c0 18 14 31 31 31s32-14 32-31v-18h67c21 0 41-8 57-23 15-15 23-36 23-57v-148c0-17-14-31-31-31s-31 14-31 31v18h-478v-263c0-5 2-10 5-13 3-3 8-5 12-5h197c17 0 31-14 31-31s-14-31-31-31z m-214 407h478v67c0 5-2 9-5 12s-8 6-12 6h-67v-18c0-18-14-31-32-31s-31 14-31 31v18h-183v-18c0-18-14-31-31-31s-31 14-31 31v18h-67c-5 0-10-2-13-5s-5-8-5-13v-67z" horiz-adv-x="1000" />

<glyph glyph-name="calendar-remove" unicode="&#xf14e;" d="M672-50c-61 0-118 23-161 67-42 42-66 101-66 161s23 118 66 161c43 43 101 67 161 67s119-25 161-67c43-43 67-100 67-161s-24-118-67-161c-43-43-100-67-161-67z m0 394c-44 0-85-17-117-49-31-31-48-73-48-117s17-86 48-117c31-31 73-48 117-48s86 17 117 48 49 74 49 117-17 86-49 117c-31 31-73 49-117 49z m99-197h-197c-17 0-31 14-31 31s14 31 31 31h197c17 0 31-14 31-31s-14-31-31-31z m-394 0h-196c-22 0-42 8-57 23-15 15-24 36-24 57v393c0 22 9 42 24 57s35 24 57 24h67v18c0 18 14 31 31 31s31-14 31-31v-18h183v18c0 18 14 31 31 31s31-14 31-31v-18h68c21 0 41-9 57-24 15-15 23-35 23-57v-147c0-17-14-31-31-31s-31 14-31 31v18h-478v-263c0-5 2-10 5-13 3-3 8-5 12-5h197c17 0 31-14 31-31s-14-31-31-31z m-214 407h478v66c0 5-2 10-5 13-4 3-8 5-13 5h-67v-18c0-17-14-31-31-31s-31 14-31 31v18h-184v-18c0-17-14-31-31-31s-31 14-31 31v18h-67c-5 0-9-2-12-5s-5-8-5-13v-66z" horiz-adv-x="1000" />

<glyph glyph-name="calendar-warning" unicode="&#xf14f;" d="M533-50c-15 0-30 4-44 11-13 8-24 18-32 31-8 14-13 29-14 44 0 15 3 31 10 44l138 277c8 15 19 28 33 36 28 18 66 18 94 0 14-9 26-21 33-36l139-277c7-13 10-28 10-43-1-16-5-30-13-44-9-13-20-24-33-31-14-7-29-11-44-11h-278z m138 394c-5 0-10-2-14-4-4-3-8-7-10-11l-138-277c-2-4-3-9-3-14 0-4 2-9 4-13 2-3 6-7 10-9 4-2 9-3 13-3h278c5 0 9 1 13 3 4 2 8 6 10 10 2 3 4 8 4 12 0 5-1 9-3 13 0 0 0 0 0 0l-139 277c-2 5-6 8-10 11-4 3-9 4-14 4z m1-296c-26 0-44 20-44 44s20 43 44 43h0c24 0 43-19 43-43s-19-44-43-44h0z m0 99c-17 0-31 14-31 31v74c0 17 14 31 31 31s31-14 31-31v-74c0-17-14-31-31-31z m-270 0h-221c-22 0-42 8-57 23-15 16-24 36-24 57v394c0 21 9 42 24 57s35 23 57 23h67v18c0 18 14 31 31 31s31-14 31-31v-18h183v18c0 18 14 31 31 31s31-14 31-31v-18h67c22 0 42-8 57-23 15-15 24-36 24-57v-140c0-17-14-31-31-31s-31 14-31 31v10h-478v-264c0-5 2-10 5-13 4-3 8-5 13-5h221c18 0 31-14 31-31s-14-31-31-31z m-239 407h478v67c0 4-2 9-5 12s-8 6-12 6h-67v-18c0-18-14-31-31-31s-31 14-31 31v18h-184v-18c0-18-14-31-31-31s-31 14-31 31v18h-67c-5 0-9-2-12-5s-5-8-5-13v-67z" horiz-adv-x="1000" />

<glyph glyph-name="calendar" unicode="&#xf150;" d="M820-50h-639c-33 0-81 21-81 81v540c0 33 22 81 81 81h116v67c0 17 14 31 31 31s31-14 31-31v-67h282v67c0 17 14 31 31 31s31-14 31-31v-67h116c33 0 81-22 81-81v-541c0-33-22-81-81-81z m-657 443v-362c0-5 0-18 18-18h639c5 0 17 0 18 18v362h-675z m0 62h675v116c0 5 0 18-19 18h-116v-42c0-18-14-31-31-31s-31 14-31 31v42h-281v-42c0-18-14-31-31-31s-31 14-31 31v42h-117c-5 0-17 0-18-18v-116z" horiz-adv-x="1000" />

<glyph glyph-name="camera" unicode="&#xf151;" d="M820 25h-639c-22 0-42 9-57 24-15 15-24 35-24 56v392c0 22 9 42 24 57 15 15 35 23 57 23h202l27 54c6 13 17 24 29 32 13 8 27 12 42 12h185c15 0 30-4 43-12 12-8 23-19 29-32l27-54h55c21 0 41-8 57-23 15-15 23-35 23-57v-392c0-21-8-41-23-56-15-15-36-24-57-24z m-639 490c-5 0-10-2-13-5s-5-8-5-12v-392c0-5 2-9 5-13 4-3 8-5 13-5h639c5 0 9 2 12 5 4 4 6 8 6 13v392c0 5-2 9-5 12s-8 6-13 6h-73c-12 0-23 6-28 17l-36 71c-1 3-4 5-6 7-3 2-6 2-10 2h-185c-3 0-6-1-9-2-3-2-5-4-7-7l-35-71c-6-11-16-17-28-17h-222z m393-392c-112 0-204 91-204 203s91 202 204 202 203-91 203-202-91-203-203-203z m0 343c-78 0-141-63-141-140s63-141 141-141 141 63 141 141-63 140-141 140z m-332-73h0c-24 0-43 19-43 43s19 44 43 44h0c24 0 44-20 44-44s-20-43-44-43h0z" horiz-adv-x="1000" />

<glyph glyph-name="canoe" unicode="&#xf152;" d="M191-50c-8 0-15 1-22 4-6 3-12 7-18 12l-34 35c-5 5-9 12-12 18-3 7-5 14-5 22s2 14 4 21c3 7 7 13 12 19l60 59c6 7 15 14 25 18 10 5 21 7 32 7 10 0 21-1 31-6 0 0 0 0 0 0l46 46c-8 43-13 91-13 146 0 193 61 302 112 360 12 13 26 23 41 30 32 14 68 14 100 0 16-7 29-17 41-30 0 0 0 0 0 0 28-31 58-77 81-144l22 23c-3 9-5 19-6 29 0 21 8 41 22 56l60 60h0c5 5 11 9 18 12 14 6 29 6 42 0 7-3 13-7 19-12l34-34c5-5 9-11 12-18 3-7 5-14 5-22s-2-14-4-21c-3-7-7-13-13-18l-59-59c-16-15-36-23-57-23-10 0-20 2-29 6l-48-48c8-42 13-91 13-146 0-193-61-302-112-360-12-13-26-23-41-30-32-14-68-14-99 0-16 7-30 17-42 29-28 32-58 79-80 145l-20-20h0c4-11 6-21 6-32 0-11-3-21-7-31-5-10-11-19-19-26l-58-59c-5-6-12-10-19-12-6-3-14-4-21-4z m5 61h0 0z m304 677c-8 0-16-2-24-5s-15-9-21-15c-43-49-96-144-96-318s53-268 96-318c6-5 12-10 20-14 16-7 34-7 49 0 8 4 15 9 21 15 43 49 96 144 96 317s-52 269-96 318c-6 6-13 11-20 15-8 3-16 5-25 5z m-335-647l26-26 54 55c3 2 4 4 5 6 1 2 2 5 2 7 0 3 0 5-2 7 0 0 0 0 0 1-1 1-3 2-5 4-1 1-3 3-4 5 0 0 0 0-1 0-2 1-4 1-7 1-2 0-5 0-7-1-2-1-4-3-6-4l-55-56z m645 644l-55-54c-2-3-4-7-4-12 0-4 2-9 5-12s8-5 13-5c3 0 9 1 12 5l54 54-25 25z m-310-538c-29 0-57 15-77 41-18 24-28 55-28 89s10 64 28 88c40 53 115 53 155 0 18-24 28-55 28-88s-10-65-28-89c-20-26-48-41-77-41z m0 197c-9 0-19-6-27-17-10-13-15-31-15-51s5-38 15-50c16-21 39-21 55 0 10 13 15 31 15 51s-5 38-15 51c-8 10-18 16-27 16z" horiz-adv-x="1000" />

<glyph glyph-name="car-front" unicode="&#xf154;" d="M771 50c-22 0-42 9-57 24-15 15-24 35-24 56v18h-380v-18c0-21-8-41-23-56-31-30-84-30-114 0-15 15-23 35-23 56v24c-10 4-19 10-26 17-15 15-23 36-23 57v73c0 24 9 47 26 64l59 58-18 18h-36c-17 0-31 14-31 31s14 31 31 31h49c9 0 16-3 22-9l15-14 39 103c7 20 21 37 38 49 18 12 39 18 60 18h291c21 0 42-6 60-18 17-12 31-29 38-49l39-103 15 15c6 6 14 9 22 9h49c17 0 31-14 31-31s-14-31-31-31h-36l-18-18 59-59c17-17 26-39 26-63v-74c0-21-8-41-23-56-8-8-16-13-26-17v-24c0-21-8-42-23-57-15-15-36-23-57-23z m-18 98v-18c0-4 2-9 5-12 7-7 18-7 25 0 4 3 6 8 6 12v18h-36z m-541 0v-18c0-4 2-9 5-12 7-7 18-7 25 0 4 3 5 8 5 12v18h-36z m-49 147v-67c0-4 2-9 5-12 2-2 3-3 6-4 2-1 4-2 7-2h639c5 0 9 2 12 5 4 4 6 8 6 13v66h-96c-5 0-10-2-13-5l-34-34c-12-12-32-12-44 0s-13 32 0 44l35 34c15 15 35 24 57 24h51l-36 35h-515l-36-35h51c22 0 42-9 57-24l35-34c12-12 12-32 0-44-12-12-32-12-44 0l-35 34c-3 4-8 5-12 5h-96z m112 160h450l-40 106c-3 8-8 15-15 20-7 5-16 7-24 7h-291c-9 0-17-2-24-7-7-5-13-12-16-20l-40-106z" horiz-adv-x="1000" />

<glyph glyph-name="car-old-timey" unicode="&#xf155;" d="M771 25c-35 0-67 14-92 38-24 24-38 57-38 91 0 6 0 12 1 18h-284c1-6 1-12 1-18 0-34-13-67-38-91-49-49-134-49-183 0-25 24-38 57-38 91s13 67 38 92c3 3 7 7 11 10v339c0 22 8 42 23 57 15 15 36 23 57 23h344s4 0 6 0c2 0 4-1 5-1l73-25c17-5 25-23 20-39-5-17-23-25-39-20l-33 11v-146h117c6 0 12 0 18-2v45c0 17 14 31 31 31s31-14 31-31v-218c22-5 43-17 60-34 25-24 38-57 38-91s-13-67-38-92c-24-24-57-37-91-37z m0 196c-18 0-35-7-48-19-12-13-19-30-19-47s7-35 19-47c26-25 70-25 95 0 13 12 20 29 20 47s-7 34-20 47-29 19-47 19z m-541 0c-18 0-35-7-48-19-12-13-19-30-19-48s7-34 19-47c25-25 70-25 95 0 13 13 20 30 20 47 0 11-3 22-8 32-1 1-2 2-3 4-2 4-6 8-9 12-13 12-30 19-48 19z m101 13h338c3 4 6 8 10 11 17 17 37 29 60 34v95c0 5-2 9-5 13-4 3-8 5-13 5h-509v-111c39 6 81-8 109-36 4-4 7-8 10-11z m78 221h134v158h-134v-158z m-197 0h134v158h-116c-5 0-10-2-13-5s-5-8-5-13v-140z" horiz-adv-x="1000" />

<glyph glyph-name="car" unicode="&#xf156;" d="M672 88c-47 0-87 31-100 73h-171c-13-43-53-73-99-73s-87 31-100 73h-15c-23 0-45 9-61 25-17 17-26 38-26 62v66c0 17 5 34 15 48 2 4 5 7 9 9l100 64 51 120c5 15 16 30 31 41 15 10 33 16 51 16h213c18 0 36-5 51-16 12-9 22-21 31-36l71-119s4-2 5-4l145-63c5-3 10-7 13-12 10-14 15-31 15-48v-66c0-23-9-45-26-62-16-16-38-25-61-25h-43c-13-43-53-73-99-73z m0 146c-23 0-42-19-42-42s19-42 42-42 42 18 42 42-19 42-42 42z m-370 0c-23 0-42-19-42-42s19-42 42-42 41 18 42 40c0 0 0 1 0 1s0 1 0 2c-1 22-20 40-42 40z m469-11h43c6 0 12 3 17 7 4 5 7 11 7 17v67s0 4-1 7l-142 62h-226s-1 0-2 0h-208l-95-60c-1-3-1-6-1-9v-67c0-6 2-12 7-17 4-5 10-7 17-7h15c13 42 53 73 99 73s87-31 100-73h171c13 42 53 73 99 73s87-31 100-73z m-272 223h148l-50 82c-4 9-9 14-14 17-4 3-9 5-14 5h-70v-105z m-202 0h140v104h-80c-5 0-10-1-14-4-4-3-8-7-9-12l-37-88z" horiz-adv-x="1000" />

<glyph glyph-name="card-view-offset" unicode="&#xf157;" d="M839-50h-242c-16 0-32 6-43 18-12 11-18 27-18 44v341c0 17 6 32 18 44 11 11 27 18 43 18h242c16 0 32-7 43-18 12-12 18-27 18-44v-341c0-17-6-33-18-44-11-12-27-18-43-18z m-242 402l1-341 240 1v341l-241-1z m-194-402h-241c-17 0-32 6-44 18-11 11-18 27-18 44v141c0 17 7 32 18 44 12 11 27 18 44 18h241c17 0 32-7 44-18 11-12 18-27 18-44v-141c0-17-7-33-18-44-12-12-27-18-44-18z m-1 203l-240-1 1-140 239 1v140z m1 133h-241c-17 0-32 7-44 18-11 12-18 27-18 44v341c0 16 7 32 18 43s27 18 44 18h241c17 0 32-6 44-18s18-27 18-43v-342c0-16-7-32-18-43-12-12-27-18-44-18z m-1 403l-240-1 1-341 239 1v341z m437-203h-242c-16 0-32 7-43 18-12 12-18 27-18 44v141c0 17 6 32 18 44 11 11 27 18 43 18h242c16 0 32-7 43-18 12-12 18-27 18-44v-141c0-17-6-32-18-44-11-11-27-18-43-18z m-1 203l-241-1 1-141 240 1v141z" horiz-adv-x="1000" />

<glyph glyph-name="card-view" unicode="&#xf158;" d="M839-50h-242c-16 0-32 6-43 18-12 11-18 27-18 44v241c0 17 6 32 18 44 12 11 27 18 43 18h242c16 0 31-7 43-18 12-12 18-27 18-44v-241c0-17-6-33-18-44-11-12-27-18-43-18z m-1 303l-241-1 1-240 240 1v240z m-435-303h-241c-17 0-32 6-44 18-11 11-18 27-18 44v241c0 17 7 32 18 44 12 11 27 18 44 18h241c17 0 32-7 44-18 11-12 18-27 18-44v-241c0-17-7-33-18-44-12-12-27-18-44-18z m-1 303l-240-1 1-240 239 1v240z m437 133h-242c-16 0-32 7-43 18-12 12-18 27-18 44v241c0 16 6 32 18 43 11 12 27 18 43 18h242c16 0 32-6 43-18 12-11 18-27 18-43v-242c0-16-6-32-18-43-11-12-27-18-43-18z m-1 303l-241-1 1-241 240 1v241z m-435-303h-241c-17 0-32 7-44 18s-18 27-18 44v241c0 16 7 32 18 43s27 18 44 18h241c17 0 32-6 44-18s18-27 18-43v-242c0-16-7-32-18-43s-27-18-44-18z m-1 303l-240-1 1-241 239 1v241z" horiz-adv-x="1000" />

<glyph glyph-name="cart" unicode="&#xf159;" d="M645-50c-24 0-44 20-44 44s20 45 44 45h0c25 0 45-20 45-45s-20-44-45-44z m-263 0c-25 0-45 20-45 44s20 45 45 45h0c24 0 44-20 44-45s-20-44-44-44z m329 106h-349c-20 0-39 7-54 20-15 12-25 30-28 50l-93 544c-1 5-3 9-7 12-4 4-9 5-14 5h-35c-17 0-31 14-31 32s14 31 31 31h35c20 0 39-7 54-20 15-12 25-30 28-50l15-88h579c9 0 18-2 25-6 8-4 15-9 20-16 6-7 9-15 11-24 2-8 2-17 0-26l-51-203c-7-30-24-56-48-75-24-18-54-29-84-29h-387l13-77c1-5 3-10 7-13 4-3 9-5 14-5h349c17 0 31-14 31-31s-14-32-31-32z m-393 220h397c17 0 33 6 46 16 13 10 22 24 26 40l49 198h-562s43-254 43-254z" horiz-adv-x="1000" />

<glyph glyph-name="check" unicode="&#xf15d;" d="M322-50s-1 0-1 0c-11 0-20 6-26 15l-166 286c-8 15-3 34 11 43 15 8 34 3 43-12l141-243 495 698c10 14 29 18 43 8 14-10 18-30 8-44l-522-738c-6-8-15-13-25-13z" horiz-adv-x="1000" />

<glyph glyph-name="checklist" unicode="&#xf15f;" d="M554-50h-373c-22 0-42 8-57 23-15 15-24 36-24 58v639c0 21 9 41 24 57s35 23 57 23h639c21 0 41-8 57-23 15-15 23-36 23-57v-373c0-11-2-22-6-32 0-1-1-2-2-3-4-8-9-16-15-22l-266-267c-7-6-14-11-22-15-1-1-2-1-4-2-10-4-20-6-31-6z m-373 738c-5 0-10-2-13-5s-5-8-5-13v-639c0-5 2-9 5-12 4-4 8-6 13-6h362v215c0 21 8 41 23 57 16 15 36 23 57 23h215v362c0 5-2 9-6 12-3 4-8 5-12 5h-639z m442-443c-5 0-9-2-12-5-4-4-5-8-5-13v-170l188 188h-170z m-245 17s-1 0-2 0c-10 0-20 6-25 15l-63 107c-8 15-3 34 12 43 15 8 34 3 42-12l38-65 168 237c10 14 30 17 44 7 14-10 17-29 7-43l-196-276c-6-9-15-13-25-13z" horiz-adv-x="1000" />

<glyph glyph-name="clipboard" unicode="&#xf16e;" d="M756-50h-512c-22 0-42 8-57 23-16 16-24 36-24 58v573c0 22 8 42 24 57s36 24 57 24h84v10c0 27 20 55 56 55h232c27 0 56-19 56-55v-11h84c22 0 42-9 58-24 15-15 24-36 24-57 0-2 0-3 0-5v-567c0-22-9-43-24-58-15-15-36-23-58-23z m-512 672c-5 0-9-2-13-5s-5-8-5-13v-574c0-5 1-9 5-13 4-3 8-5 13-5h512c5 0 9 2 13 5 4 5 5 10 5 13v573s0 2 0 4c0 3-2 7-5 9-3 4-8 6-13 6h-84v-9c0-27-20-55-56-55h-232c-27 0-56 19-56 55v10h-84z m562-19h0 0z m-415 50v-34h218v69h-218v-34s0 0 0-1v-1z m109-496h-151c-17 0-31 14-31 31s14 31 31 31h151c18 0 32-14 32-31s-14-31-32-31z m152 128h-303c-17 0-31 14-31 31s14 31 31 31h303c17 0 31-14 31-31s-14-31-31-31z m0 130h-303c-17 0-31 14-31 31s14 31 31 31h303c17 0 31-14 31-31s-14-31-31-31z" horiz-adv-x="1000" />

<glyph glyph-name="clock" unicode="&#xf16f;" d="M500-50c-107 0-207 41-283 117s-117 176-117 283 42 208 117 283c76 76 176 117 283 117s208-41 283-117 117-176 117-283-41-207-117-283c-75-76-176-117-283-117z m0 738c-90 0-175-35-238-99-64-64-99-149-99-239s35-175 99-238c63-64 148-99 238-99s175 35 239 99c64 63 99 148 99 238s-35 175-99 239c-64 63-149 99-239 99z m165-534c-8 0-16 3-22 9l-165 165c-3 3-5 6-7 10-1 3-2 7-2 11h0v133c0 17 14 31 31 31s31-14 31-31v-119l155-156c12-12 12-32 0-44-6-6-14-9-22-9z" horiz-adv-x="1000" />

<glyph glyph-name="close" unicode="&#xf172;" d="M500-50c-107 0-207 41-283 117s-117 176-117 283 42 208 117 283c76 76 176 117 283 117s208-41 283-117 117-176 117-283-41-207-117-283c-75-76-176-117-283-117z m0 738c-90 0-175-35-238-99-64-64-99-149-99-239s35-175 99-238c63-64 148-99 238-99s175 35 239 99c64 63 99 148 99 238s-35 175-99 239c-64 63-149 99-239 99z m153-521c-8 0-16 3-22 9l-128 128-128-128c-12-12-32-12-44 0s-12 32 0 44l128 128-128 128c-12 12-12 32 0 44s32 12 44 0l128-128 128 128c12 12 32 12 44 0 12-12 12-32 0-44l-128-128 128-128c12-12 12-32 0-44-6-6-14-9-22-9z" horiz-adv-x="1000" />

<glyph glyph-name="close-filled" unicode="&#xf173;" d="M783 633c-75 76-176 117-283 117s-207-41-283-117c-75-75-117-176-117-283s42-207 117-283 176-117 283-117 208 41 283 117c76 76 117 176 117 283s-41 208-117 283z m-111-411c12-12 12-32 0-44-6-6-14-9-22-9s-16 3-22 9l-128 128-128-128c-6-6-14-9-22-9s-16 3-22 9c-12 12-12 32 0 44l128 128-128 128c-12 12-12 32 0 44s32 12 44 0l128-128 128 128c12 12 32 12 44 0 12-12 12-32 0-44l-128-128 128-128z" horiz-adv-x="1000" />

<glyph glyph-name="cloud-download" unicode="&#xf174;" d="M655 45c-4 0-9 1-12 3h0c-4 1-7 3-9 6h0l-1 1-91 90c-12 12-12 32 0 44 12 12 32 12 44 0l38-37v208c0 17 14 31 31 31s31-14 31-31v-208l37 37c12 12 32 12 44 0s12-31 0-44l-90-90h0s0 0 0 0h0s0 0 0 0c0 0 0 0 0 0h0c-3-3-6-5-10-7-3-1-7-2-12-2z m-274 192h-133c-81 0-148 66-148 148s64 146 144 148c21 122 129 216 256 216 103 0 195-60 235-153 57-4 109-36 139-86 9-15 5-34-10-43-15-9-34-4-43 11-22 36-60 57-101 57h-29l-7 21c-26 79-100 132-184 132-105 0-193-85-197-189l-2-36-35 7c-6 1-12 2-18 2-47 0-86-39-86-86s39-87 86-87h133c17 0 31-14 31-31s-14-31-31-31z" horiz-adv-x="1000" />

<glyph glyph-name="cloud-lightning" unicode="&#xf175;" d="M502-50c-7 0-14 2-20 6-14 9-19 27-12 43l63 149h-35c-8 0-15 2-22 5-7 4-12 9-16 16-4 6-7 13-8 21 0 7 1 15 4 22l91 212c4 8 10 15 17 20 8 5 17 7 25 7h154c8 0 17-2 24-7 7-4 13-11 17-19 4-8 5-16 4-25-1-9-4-17-9-24l-60-75h34c9 0 18-3 25-8 8-5 14-13 17-21 4-9 4-18 3-27-2-8-6-17-13-23l-258-261c-7-7-16-11-25-11z m20 260h35c7 0 15-2 22-6 6-3 12-9 16-15 4-6 7-13 8-21 0-8-1-16-4-23l-17-41 132 134h-29c-8 0-16 2-24 7-7 5-13 11-17 19-4 8-5 17-4 25 1 9 4 17 9 24l60 76h-110l-77-179z m-142 25h-132c-81 0-148 67-148 149s64 147 143 149c21 122 129 217 255 217 102 0 194-61 234-154 57-5 108-37 139-87 9-15 4-34-11-43-15-9-33-4-42 10-22 37-60 58-101 58h-29l-7 22c-26 79-100 132-183 132-105 0-193-85-196-190l-2-36-35 7c-6 1-12 2-18 2-47 0-85-39-85-87s38-87 85-87h133c17 0 31-14 31-31s-14-31-31-31z" horiz-adv-x="1000" />

<glyph glyph-name="cloud-offline" unicode="&#xf176;" d="M677-24c-29 0-58 6-85 17-28 12-52 28-73 49-21 21-37 46-48 73-12 28-17 57-17 87 0 60 23 117 65 159 42 43 99 66 158 66s117-24 158-66h0c42-42 66-99 66-159 0-30-6-59-17-87-11-27-28-52-49-73-21-21-45-38-72-50-27-11-56-17-86-17z m-90 91c9-6 18-11 28-15 40-17 84-17 124 0 19 8 37 20 52 35 15 15 27 33 35 53 8 20 12 41 12 63 0 33-10 64-27 90l-224-226z m90 298c-43 0-83-17-114-48-30-31-47-71-47-115 0-21 4-42 12-62 4-10 9-20 15-29l224 226c-27 18-58 28-90 28z m-296-131h-133c-81 0-148 67-148 150s64 147 144 149c20 123 128 218 255 218 103 0 194-61 234-154 57-5 109-37 139-88 9-15 5-34-10-43-15-9-34-5-43 10-22 37-60 58-101 58h-29l-7 22c-26 79-100 132-184 132-104 0-192-85-196-190l-1-37-36 7c-6 1-12 2-18 2-47 0-85-39-85-87s38-87 85-87h133c17 0 31-14 31-31s-14-32-31-32z" horiz-adv-x="1000" />

<glyph glyph-name="cloud-sync" unicode="&#xf177;" d="M685-25c-5 0-9 0-14 0-45 3-89 21-123 51-9 8-17 17-25 27v-24c0-17-14-32-32-32s-31 15-31 32v114c0 20 15 35 35 35h17s1 0 1 0h96c17 0 31-14 31-31s-14-32-31-32h-53c8-16 19-31 33-43 23-21 54-33 85-35 31-2 63 6 89 23 27 18 47 44 57 73 5 17 23 25 39 20 17-6 25-24 20-40-15-43-44-80-81-105-34-23-74-35-115-35z m163 236s0 0-1 0h-96c-17 0-31 14-31 31s14 32 31 32h53c-8 16-19 31-33 43-23 21-54 33-85 35-31 2-63-6-89-23-26-18-47-44-57-73-5-17-23-25-39-20-17 6-25 24-20 40 15 43 44 80 81 105 38 25 83 37 128 34 45-3 89-21 123-51 9-8 17-17 25-26v23c0 18 14 32 32 32s31-14 31-32v-112c0-21-16-37-37-37h-15s0 0 0 0z m-465 23h-134c-82 0-149 68-149 150s65 146 145 149c20 122 130 217 257 217 104 0 196-61 237-154 58-5 111-38 141-88 9-15 4-34-11-43-15-9-34-4-43 11-21 36-59 57-102 57h-29l-7 22c-26 79-101 132-185 132-106 0-195-85-199-190l-1-36-36 7c-6 1-12 2-18 2-47 0-86-39-86-87s39-86 86-86h134c18 0 32-15 32-32s-14-32-32-32z" horiz-adv-x="1000" />

<glyph glyph-name="cloud-transfer" unicode="&#xf178;" d="M779 51h0c-4 0-8 1-11 3-3 1-5 2-7 4h0s0 0 0 0h0s0 0 0 0c0 0 0 0 0 0h0s0 0 0 0h0s0 0 0 0c0 0 0 0 0 0 0 0 0 0 0 0t0 0h0s0 0 0 0h0s0 0 0 0h0s0 0 0 0h0s0 0 0 0c0 0 0 0 0 0h0s-1 1-2 1h0s0 0 0 0c0 0 0 0 0 0h0s-90 90-90 90c-12 12-12 31 0 43s32 12 44 0l37-37v205c0 17 14 31 31 31s31-14 31-31v-205l37 37c12 12 32 12 44 0 12-12 12-31 0-43l-90-90h-1s0 0 0 0h0s0 0 0 0h0c-2-3-6-5-9-6-3-2-7-3-12-3h0z m-210 0c-17 0-31 14-31 31v205l-37-37c-12-12-32-12-44 0s-12 32 0 44l90 89c3 3 7 6 11 7 3 2 7 2 10 2 1 0 2 0 2 0h0c4 0 7-1 11-2 3-1 7-3 10-6h0s0 0 0 0c0 0 0 0 0 0h0s0 0 0 0c0 0 0 0 0 0t0 0h0s0 0 0 0h0s90-90 90-90c12-12 12-31 0-43-12-12-32-12-44 0l-37 36v-205c0-17-14-31-31-31z m-189 193h-132c-82 0-148 66-148 147s64 144 143 147c21 120 129 213 255 213 102 0 194-60 234-151 57-5 108-36 139-86 9-15 4-34-11-43-15-9-34-4-43 11-22 35-59 57-101 57h-29l-7 21c-26 77-99 129-183 129-104 0-192-83-196-186l-1-36-36 7c-6 1-12 2-17 2-47 0-86-38-86-85s39-85 86-85h132c17 0 31-14 31-31s-14-31-31-31z" horiz-adv-x="1000" />

<glyph glyph-name="cloud-upload" unicode="&#xf179;" d="M655 46c-17 0-31 14-31 31v208l-38-37c-12-12-31-12-44 0s-12 31 0 44l91 90s0 1 1 1c2 3 5 5 9 6 7 3 16 3 24 0 3-2 6-4 9-7h0s0 0 0 0t0 0h0s0 0 0 0l91-90c12-12 12-32 0-44s-32-12-44 0l-38 37v-208c0-17-14-31-31-31z m-274 192h-133c-81 0-148 66-148 148s64 146 144 148c21 122 129 216 256 216 103 0 195-60 235-153 57-4 109-36 139-87 9-14 5-33-10-42-15-9-34-4-43 10-22 36-60 58-101 58h-29l-7 21c-26 78-100 131-184 131-105 0-193-84-197-188l-2-37-35 7c-6 1-12 2-18 2-47 0-86-38-86-86s39-86 86-86h133c17 0 31-14 31-31s-14-31-31-31z" horiz-adv-x="1000" />

<glyph glyph-name="cloud" unicode="&#xf17a;" d="M720 100h-472c-81 0-148 66-148 145s64 142 144 145c21 119 129 211 256 211 103 0 195-60 236-150 92-7 165-83 165-175 0-96-81-175-180-175z m-397 61h397c65 0 118 51 118 115s-53 115-118 115h-29l-7 20c-26 77-100 129-184 129-105 0-193-83-197-184l-2-36-36 7c-5 1-11 2-17 2-48 0-86-37-86-83s38-84 86-84h74z" horiz-adv-x="1000" />

<glyph glyph-name="code" unicode="&#xf17b;" d="M644 75c-8 0-16 3-22 9-12 12-12 32 0 44l211 210c3 3 5 8 5 12s-2 10-5 13l-211 209c-12 12-12 32 0 44 12 12 32 12 44 0l211-209c15-15 24-36 24-57s-9-41-24-56l-211-210c-6-6-14-9-22-9z m-287 0c-8 0-16 3-22 9l-211 210c-15 15-24 35-24 56s9 42 24 57l211 209c12 12 32 12 44 0s12-31 0-44l-211-209c-4-4-5-8-5-13s2-9 5-12l211-210c12-12 12-32 0-44-6-6-14-9-22-9z" horiz-adv-x="1000" />

<glyph glyph-name="collapse-area" unicode="&#xf17d;" d="M175-50s-3 0-4 0c-17 2-33 10-45 23-13 13-22 31-23 49-2 17 11 32 28 34 18 1 33-11 34-29 0-3 2-7 5-10 3-3 7-4 10-5 17-3 29-19 27-36-2-16-16-27-31-27z m150 0h-43c-17 0-31 14-31 31s14 31 31 31h43c17 0 31-14 31-31s-14-31-31-31z m107 1c-16 0-29 12-31 29-1 17 11 33 29 34 3 0 7 2 10 5 3 3 4 6 5 10 2 17 18 29 35 27 17-3 29-18 27-36-3-17-11-33-23-45-13-13-31-22-49-23-1 0-2 0-3 0z m388 147h-227c-17 0-31 14-31 31s14 31 31 31h227c3 0 8 1 13 5 4 4 5 8 5 13v492c0 5-2 9-5 13-4 3-8 5-13 5h-492c-5 0-9-2-13-5-3-4-5-8-5-13v-232c0-18-14-31-31-31s-31 14-31 31v232c0 22 8 41 23 57s36 23 57 23h491c22 0 42-8 57-23 15-15 24-36 24-57v-491c0-22-8-42-24-57-15-15-35-24-57-24z m-344 3c-18 0-31 14-31 31v43c0 17 14 31 31 31s31-14 31-31v-43c0-17-14-31-31-31z m-345 0c-17 0-31 14-31 31v43c0 17 14 31 31 31s31-14 31-31v-43c0-17-14-31-31-31z m344 150c-16 0-30 12-31 28 0 4-2 8-5 10-2 2-6 5-10 5-17 3-29 19-27 36 3 17 18 29 36 26 17-2 32-10 45-23 13-13 21-30 23-48 1-17-11-33-29-34-1 0-2 0-3 0z m-342 2s-3 0-5 0c-17 2-29 18-26 35 2 17 10 33 23 45 13 13 30 22 49 23 17 1 32-11 34-28 1-17-11-33-29-34-3 0-7-2-10-5-2-2-4-6-5-10-2-16-15-27-31-27z m192 42h-43c-17 0-31 14-31 31s14 31 31 31h43c17 0 31-14 31-31s-14-31-31-31z m364 65h-123c-15 0-30 6-40 16s-16 24-16 39v123c0 18 14 31 31 31s31-14 31-31v-72l169 169c12 12 32 12 44 0 12-12 12-32 0-44l-169-169h72c17 0 31-14 31-31s-14-31-31-31z" horiz-adv-x="1000" />

<glyph glyph-name="collapse-horizontal-within" unicode="&#xf17e;" d="M869-50c-17 0-31 13-31 31v339h-190l70-71c12-12 12-31 0-43s-31-12-43 0l-123 123c-6 5-9 13-9 22h0c0 8 3 16 9 22l123 123c12 12 31 12 43 0s12-32 0-44l-70-70h190v337c0 17 14 31 31 31s31-14 31-31v-739c0-17-13-31-31-31z m-738 0c-17 0-31 13-31 31v738c0 17 14 31 31 31s31-14 31-31v-338h191l-71 70c-12 12-12 32 0 44 12 12 32 12 44 0l123-123s0-1 1-1h0c2-3 4-6 5-9 2-4 3-8 3-12s-1-9-3-12c-1-4-3-7-6-9 0 0 0 0 0 0 0 0 0 0 0 0h0s0 0 0 0l-123-123c-12-12-31-12-43 0s-12 31 0 43l70 71h-190v-339c0-17-14-31-31-31z" horiz-adv-x="1000" />

<glyph glyph-name="collapse-horizontal" unicode="&#xf17f;" d="M500-50c-17 0-31 14-31 31v738c0 18 14 31 31 31s31-14 31-31v-738c0-17-14-31-31-31z m226 246c-8 0-16 3-22 9l-123 123s0 0-1 0h0s0 0 0 0h0c-2 3-4 6-6 10 0 0 0 0 0 0h0c-1 3-2 7-2 11h0c0 5 1 9 2 13 2 3 4 6 6 9h0s0 0 0 0c0 0 0 0 1 1l123 123c12 12 32 12 44 0 12-12 12-32 0-44l-70-70h191c17 0 31-14 31-31s-14-31-31-31h-191l70-69c12-12 12-32 0-44-6-6-14-9-22-9z m-451 0c-8 0-16 3-22 9-12 12-12 32 0 44l70 69h-191c-18 0-31 14-31 31s14 31 31 31h191l-70 70c-12 12-12 32 0 44s32 12 44 0l123-123c12-12 12-32 0-44l-123-123c-6-6-14-9-22-9z" horiz-adv-x="1000" />

<glyph glyph-name="collapse-in" unicode="&#xf180;" d="M869-50c-8 0-16 3-22 9l-147 147v-45c0-17-14-31-31-31s-31 14-31 31v119c0 8 2 17 9 24h0c6 6 14 9 22 9h120c18 0 31-14 31-32s-14-31-31-31h-45l147-147c12-12 12-32 0-44-6-6-14-9-22-9z m-738 0c-8 0-16 3-22 9-12 12-12 32 0 44l147 147h-45c-17 0-31 14-31 31s14 31 31 31h121c8 0 16-3 22-9 0 0 0 0 0 0h0c6-6 9-15 9-24v-118c0-17-14-31-31-31s-31 14-31 31v45l-147-148c-6-6-14-9-22-9z m369 261c-77 0-139 62-139 139s62 140 139 140 140-63 140-140-62-139-140-139z m0 216c-42 0-77-34-77-77s35-77 77-77 78 35 78 77-35 77-78 77z m169 61c-4 0-7 0-10 1-5 2-9 4-12 8-7 6-10 15-9 24v118c0 17 14 31 31 31s31-14 31-31v-45l147 147c12 12 32 12 44 0s12-32 0-44l-147-147h45c17 0 31-14 31-31s-14-31-31-31h-121z m-337 0h-121c-17 0-31 14-31 31s14 31 31 31h45l-147 147c-12 12-12 32 0 44 12 12 32 12 44 0l147-147v45c0 17 14 31 31 31s31-14 31-31v-119c0-8-2-17-9-24-3-3-7-6-12-7-3-1-6-2-10-2z" horiz-adv-x="1000" />

<glyph glyph-name="collapse-vertical-within" unicode="&#xf181;" d="M869-50h-738c-17 0-31 13-31 31s14 31 31 31h339v191l-71-71c-12-12-31-12-43 0s-12 32 0 44l123 123c5 5 13 9 22 9h0c8 0 16-4 22-9l123-123c12-12 12-32 0-44s-32-12-44 0l-70 71v-191h338c17 0 31-14 31-31s-13-31-31-31z m-369 443c-4 0-8 1-12 3-3 1-6 3-9 6t0 0h0s0 0-1 1l-123 123c-12 12-12 31 0 43s32 12 44 0l70-70v190h-338c-17 0-31 14-31 31s14 31 31 31h739c17 0 31-14 31-31s-14-31-31-31h-339v-190l71 70c12 12 31 12 43 0s12-31 0-43l-123-123h0s0-1 0-1c0 0 0 0 0 0 0 0 0 0 0 0-2-2-5-4-9-6-4-1-8-2-12-2z" horiz-adv-x="1000" />

<glyph glyph-name="collapse-vertical" unicode="&#xf182;" d="M500-50c-17 0-31 14-31 31v191l-69-69c-12-12-32-12-44 0s-12 32 0 44l123 123c12 12 32 12 44 0l123-123c12-12 12-32 0-44-12-12-32-12-44 0l-70 69v-191c0-17-14-31-31-31z m369 369h-738c-17 0-31 14-31 31s14 31 31 31h738c17 0 31-14 31-31s-14-31-31-31z m-369 103s0 0 0 0h0c-4 0-8 1-11 2-4 2-7 4-11 7l-123 123c-12 12-12 32 0 44s32 12 44 0l70-69v190c0 18 14 31 31 31s31-14 31-31v-190l69 69c12 12 32 12 44 0 12-12 12-32 0-44l-123-123c-3-3-6-5-10-7-4-1-7-2-11-2h-1z" horiz-adv-x="1000" />

</font>
</defs>
</svg>
