<?xml version="1.0" encoding="utf-8"?>
<!-- Generator: Adobe Illustrator 27.1.1, SVG Export Plug-In . SVG Version: 6.00 Build 0)  -->
<!DOCTYPE svg PUBLIC "-//W3C//DTD SVG 1.1//EN" "http://www.w3.org/Graphics/SVG/1.1/DTD/svg11.dtd" [
	<!ENTITY ns_extend "http://ns.adobe.com/Extensibility/1.0/">
	<!ENTITY ns_ai "http://ns.adobe.com/AdobeIllustrator/10.0/">
	<!ENTITY ns_graphs "http://ns.adobe.com/Graphs/1.0/">
	<!ENTITY ns_vars "http://ns.adobe.com/Variables/1.0/">
	<!ENTITY ns_imrep "http://ns.adobe.com/ImageReplacement/1.0/">
	<!ENTITY ns_sfw "http://ns.adobe.com/SaveForWeb/1.0/">
	<!ENTITY ns_custom "http://ns.adobe.com/GenericCustomNamespace/1.0/">
	<!ENTITY ns_adobe_xpath "http://ns.adobe.com/XPath/1.0/">
]>
<svg version="1.1" id="Layer_1" xmlns:x="&ns_extend;" xmlns:i="&ns_ai;" xmlns:graph="&ns_graphs;"
	 xmlns="http://www.w3.org/2000/svg" xmlns:xlink="http://www.w3.org/1999/xlink" x="0px" y="0px" viewBox="0 0 1106.5 276.9"
	 style="enable-background:new 0 0 1106.5 276.9;" xml:space="preserve">
<style type="text/css">
	.st0{fill:#05DD4D;}
	.st1{fill:#FFFFFF;}
</style>
<metadata>
	<sfw  xmlns="&ns_sfw;">
		<slices></slices>
		<sliceSourceBounds  bottomLeftOrigin="true" height="276.9" width="1106.5" x="0" y="-276.9"></sliceSourceBounds>
	</sfw>
</metadata>
<g>
	<path class="st0" d="M89.5,51.3c0-19.3-13.9-31.6-33.6-31.6S21.2,33.9,21.2,54.8s15,35.5,40.1,35.5h42.4
		c59.8,0,98.7,40.5,98.7,93.3c0,53.2-40.1,93.3-94.9,93.3c-55.9,0-94.9-38.6-94.9-91.8c0-19.3,6.6-39.7,16.6-54.8h22.8
		c-11.6,15-17.7,33.9-17.7,53.2c0,42,30.5,73.3,73.3,73.3s73.3-31.2,73.3-73.3s-30.5-73.3-77.1-73.3h-42C19.7,110.3,0,85.2,0,54.8
		C0,24.7,25.1,0,55.9,0c33.9,0,54.8,22.8,54.8,49.4c0,3.2-0.4,7.5-1.4,10.4h-21C89,57.5,89.5,53.6,89.5,51.3z"/>
	<path class="st1" d="M606.3,144c-1,0-1.6,0.8-1.6,1.8c1.2,18.6,14.4,32.8,32.6,32.8c14.8,0,23.8-6.2,28.4-16h14.8
		c-5.6,19.2-22.4,29.4-43.2,29.4c-30,0-47.4-21.6-47.4-52.8c0-28.8,20-51.2,47.2-51.2c26.2,0,44.6,18.6,44.6,46c0,3,0,6.2-0.4,10
		H606.3z M835.7,175.6h12.4V189h-12.2c-23.4,0-31.2-10.2-31.2-29.4V106c0-1.4-0.8-2-2.2-2h-14.6V90.6h14.6c1.4,0,2.2-0.6,2.2-2V62
		h14.8v26.6c0,1.4,0.6,2,2,2h26.6V104h-26.6c-1.4,0-2,0.6-2,2v55.2C819.5,173,821.9,175.6,835.7,175.6z M1073.3,87.8
		c19.8,0,33.2,13.4,33.2,35.6V189h-15v-61.2c0-16.4-7.2-26.2-22.8-26.2c-16,0-26,11.6-26,28.4v59h-14.8v-61.2
		c0-16.4-7.4-26.2-23-26.2c-16,0-26,12.4-26,28.4v59h-14.8V90.6h14.2v13.6c0,1.6,1.6,1.8,2.4,0.6c8-13,17.2-17,29-17
		c12.4,0,23,6,29.4,18.8c0.6,1,2.2,1.2,2.8,0C1049.1,93.6,1059.7,87.8,1073.3,87.8z M895.9,192c-20.2,0-33.8-14.2-33.8-36.4v-65h15
		v60.8c0,17.4,8.4,27.2,24.2,27.2c17.4,0,28.6-13.2,28.6-29.2V90.6h14.8V189h-14v-15.8c0-1.8-1.8-2.2-2.6-0.8
		C920.1,187.2,909.5,192,895.9,192z M746.3,87.8c20.4,0,34,14,34,36.4V189h-15v-60.8c0-17.4-8.4-27.2-24.2-27.2
		c-17.4,0-28.6,13.2-28.6,29.2V189h-15V90.6h14.2v16c0,1.6,1.8,1.8,2.4,0.6C722.3,92.4,732.9,87.8,746.3,87.8z M605.1,130.2
		c0,1.4,1,1.8,2,1.8h57.2c1.4,0,2.2-0.6,2.2-2.2c-0.4-16.8-12.8-28.6-29.4-28.6C620.3,101.2,607.3,113.2,605.1,130.2z M542.3,170.6
		l30-80h15.2L549.3,189h-16.6l-38.2-98.4h15.6l30,80c0.2,0.6,0.6,0.8,1,0.8C541.7,171.4,542.1,171.2,542.3,170.6z M467.9,49v140
		h14.8V49H467.9z M403.5,192c-28.2,0-48-22-48.8-52.2c-0.8-30.2,21.2-52,48.8-52c28.4,0,49,21.8,49,52S431.3,192,403.5,192z
		 M403.5,101.2c-19.8,0-34,15.4-34,38.6s14.2,38.6,34,38.6c20,0,34-15.4,34-38.6S423.5,101.2,403.5,101.2z M301.3,100.6
		c-15.2,0-23.4,6.4-23.4,15.2c0,8,6.6,11.6,18,13.8l18.6,3.6c21,4,29.4,14.8,29.4,29.4c0,18-15,29.4-39.8,29.4
		c-24,0-41.8-10-42.6-33.2h14.6c2,14.8,13.2,20.4,28.6,20.4c14.2,0,23.8-5.2,23.8-15.6c0-9.2-6.2-14.8-19-17l-18.6-3.2
		c-19-3.2-27.6-12.8-27.6-26.4c0-17.2,13.6-29.2,38-29.2c21,0,38,9.8,39.2,30.2h-14.4C324.5,108,315.9,100.6,301.3,100.6z"/>
</g>
</svg>
